<svg xmlns="http://www.w3.org/2000/svg" viewBox="0 -0.5 256 170" shape-rendering="crispEdges">
<metadata>Made with Pixels to Svg https://codepen.io/shshaw/pen/XbxvNj</metadata>
<path stroke="#000000" d="M0 0h8M11 0h21M40 0h32M76 0h4M87 0h5M96 0h8M112 0h8M128 0h4M136 0h8M152 0h8M164 0h4M176 0h8M200 0h16M220 0h26M248 0h8M0 1h8M10 1h2M16 1h8M28 1h12M63 1h5M71 1h9M87 1h9M104 1h8M120 1h8M132 1h12M148 1h28M215 1h1M244 1h3M248 1h8M0 2h8M247 2h9M0 3h7M249 3h7M0 4h5M250 4h6M0 5h5M252 5h4M0 6h4M251 6h5M0 7h3M252 7h4M1 8h1M252 8h2M1 9h1M253 9h1M253 10h3M0 11h1M254 11h2M0 12h2M253 12h2M0 13h2M253 13h2M0 14h2M253 14h2M0 15h2M253 15h2M1 16h1M253 16h3M1 17h1M253 17h3M1 18h1M253 18h3M1 19h1M253 19h3M0 20h1M254 20h2M0 21h1M254 21h2M0 22h1M254 22h2M0 23h2M254 23h2M1 24h1M254 24h1M1 25h1M253 25h2M1 26h1M1 27h1M0 28h1M254 28h2M0 29h1M254 29h2M0 30h1M253 30h3M0 31h2M254 31h2M1 32h1M253 32h3M1 33h1M253 33h3M1 34h1M253 34h3M1 35h1M253 35h3M0 36h1M253 36h1M255 36h1M0 37h1M253 37h1M255 37h1M0 38h1M255 38h1M0 39h2M255 39h1M1 40h1M253 40h2M1 41h1M253 41h2M1 42h1M253 42h2M1 43h1M254 43h1M0 44h1M253 44h3M0 45h1M254 45h2M0 46h1M254 46h2M0 47h2M254 47h2M1 48h1M254 48h2M1 49h1M254 49h2M1 50h1M254 50h2M1 51h1M254 51h2M0 52h1M253 52h1M0 53h1M253 53h1M0 54h1M253 54h1M0 55h1M253 55h1M0 56h1M254 56h2M0 57h1M254 57h2M0 58h1M254 58h2M0 59h1M254 59h2M1 60h1M254 60h2M1 61h1M254 61h2M1 62h1M254 62h2M0 63h2M254 63h2M1 64h1M253 64h3M1 65h1M253 65h3M1 66h1M254 66h2M1 67h1M254 67h2M0 68h2M253 68h3M0 69h2M253 69h3M0 70h2M253 70h3M0 71h2M253 71h3M253 74h1M253 75h1M0 76h2M253 76h1M255 76h1M0 77h2M253 77h1M255 77h1M0 78h2M255 78h1M0 79h2M254 79h2M1 80h1M253 80h1M1 81h1M253 81h1M1 82h1M1 83h1M254 83h1M1 84h1M253 84h1M1 85h1M253 85h1M1 86h1M253 86h1M1 87h1M253 87h1M0 88h2M254 88h1M0 89h2M254 89h1M0 90h2M254 90h1M0 91h2M254 91h1M0 92h2M254 92h1M0 93h2M254 93h1M0 94h2M254 94h1M0 95h2M254 95h1M0 96h2M255 96h1M0 97h2M255 97h1M0 98h2M255 98h1M0 99h2M255 99h1M255 100h1M253 101h1M255 101h1M81 102h1M255 102h1M0 103h1M255 103h1M1 104h1M81 104h1M83 104h1M253 104h3M1 105h1M83 105h1M152 105h1M253 105h3M1 106h1M253 106h3M0 107h2M253 107h3M0 108h1M85 108h2M253 108h3M0 109h1M81 109h2M84 109h1M253 109h3M0 110h1M82 110h1M84 110h1M253 110h3M0 111h2M82 111h3M253 111h3M0 112h1M82 112h4M0 113h1M85 113h1M253 113h3M0 114h1M82 114h2M85 114h1M253 114h2M0 115h1M83 115h1M85 115h1M254 115h1M253 116h3M82 117h2M253 117h3M82 118h2M253 118h3M0 119h2M83 119h1M253 119h3M1 120h1M83 120h1M85 120h1M254 120h2M1 121h1M83 121h1M85 121h1M254 121h2M1 122h1M83 122h1M85 122h1M253 122h3M1 123h1M83 123h4M253 123h3M0 124h1M82 124h2M85 124h1M253 124h3M0 125h1M82 125h2M85 125h1M100 125h1M253 125h3M0 126h1M83 126h1M85 126h1M253 126h3M0 127h2M81 127h1M83 127h1M85 127h1M100 127h1M247 127h1M253 127h3M1 128h1M86 128h2M96 128h2M253 128h3M1 129h1M96 129h2M253 129h3M1 130h1M80 130h1M85 130h1M119 130h1M253 130h3M1 131h1M83 131h3M253 131h3M0 132h1M76 132h1M84 132h14M253 132h3M0 133h1M61 133h1M63 133h2M84 133h14M253 133h3M0 134h1M61 134h2M66 134h1M68 134h4M74 134h2M79 134h1M84 134h14M253 134h3M0 135h2M57 135h1M71 135h1M73 135h1M78 135h1M82 135h1M84 135h14M253 135h3M1 136h1M56 136h42M252 136h4M1 137h1M55 137h43M133 137h1M155 137h1M252 137h4M1 138h1M52 138h3M56 138h42M252 138h4M0 139h2M53 139h1M55 139h43M155 139h1M252 139h4M0 140h1M52 140h44M252 140h4M0 141h1M52 141h44M252 141h4M0 142h1M49 142h45M253 142h3M48 143h2M51 143h43M253 143h3M1 144h1M47 144h45M253 144h3M1 145h1M46 145h1M48 145h44M250 145h1M253 145h3M1 146h1M46 146h46M253 146h3M1 147h1M48 147h44M120 147h2M253 147h3M44 148h28M76 148h18M100 148h2M151 148h1M252 148h4M43 149h29M76 149h18M100 149h2M124 149h2M165 149h1M252 149h4M44 150h28M76 150h20M100 150h2M124 150h2M252 150h4M0 151h1M34 151h1M41 151h1M44 151h28M76 151h20M100 151h2M253 151h3M1 152h1M29 152h1M32 152h54M88 152h10M100 152h6M110 152h2M253 152h3M0 153h2M27 153h1M29 153h57M88 153h10M100 153h6M110 153h2M180 153h2M236 153h1M253 153h3M1 154h1M32 154h54M88 154h10M100 154h8M110 154h4M132 154h4M253 154h3M20 155h1M23 155h1M32 155h54M88 155h10M100 155h8M110 155h4M132 155h4M253 155h3M0 156h3M12 156h74M92 156h4M98 156h16M120 156h2M124 156h6M253 156h3M0 157h11M13 157h73M92 157h4M98 157h16M120 157h2M124 157h6M253 157h3M0 158h88M92 158h4M98 158h6M106 158h2M110 158h2M120 158h2M128 158h2M253 158h3M0 159h4M7 159h2M12 159h76M92 159h4M98 159h6M106 159h2M110 159h2M120 159h2M128 159h2M253 159h3M0 160h104M114 160h2M122 160h2M136 160h2M252 160h4M0 161h104M114 161h2M122 161h2M136 161h2M252 161h4M0 162h116M122 162h2M130 162h8M252 162h4M0 163h116M122 163h2M130 163h8M252 163h4M0 164h72M76 164h40M120 164h4M252 164h4M0 165h72M76 165h40M120 165h4M252 165h4M0 166h72M76 166h52M136 166h8M156 166h4M164 166h28M203 166h1M244 166h4M252 166h4M0 167h72M76 167h52M136 167h8M156 167h4M164 167h28M200 167h16M220 167h22M244 167h4M252 167h4M0 168h256M0 169h256" />
<path stroke="#010101" d="M8 0h1M0 8h1M0 9h1M0 10h1M253 20h1M253 21h1M253 22h1M253 23h1M253 26h1M254 36h1M254 37h1M253 38h2M0 48h1M0 49h1M0 50h1M0 51h1M253 59h1M253 79h1M253 82h1M253 83h1M156 104h1M82 108h1M83 113h1M84 119h1M253 120h1M253 121h1M252 122h1M109 123h1M252 123h1M103 127h1M95 128h1M98 128h2M98 129h2M78 130h1M94 130h6M104 130h2M90 131h1M93 131h2M96 131h3M104 131h2M104 132h3M252 132h1M76 133h1M104 133h3M147 133h1M167 133h1M252 133h1M63 134h1M104 134h2M145 134h1M168 134h1M250 134h3M104 135h2M252 135h1M98 136h2M104 136h6M156 136h1M166 136h1M98 137h2M104 137h6M130 137h2M159 137h1M170 137h1M98 138h2M104 138h8M247 138h1M98 139h2M104 139h8M156 139h1M190 139h1M50 140h1M96 140h4M118 140h2M130 140h4M96 141h4M118 141h2M130 141h4M180 141h3M94 142h6M116 142h4M128 142h6M252 142h1M94 143h6M116 143h4M128 143h6M252 143h1M112 144h2M116 144h4M128 144h16M252 144h1M112 145h2M116 145h4M128 145h16M154 145h1M252 145h1M112 146h2M116 146h4M124 146h20M208 146h1M252 146h1M112 147h2M116 147h4M124 147h20M252 147h1M94 148h2M102 148h14M126 148h14M144 148h2M180 148h4M94 149h2M102 149h14M126 149h14M144 149h2M175 149h1M180 149h4M42 150h1M102 150h14M126 150h10M144 150h2M160 150h2M37 151h2M102 151h14M126 151h10M144 151h2M160 151h2M252 151h1M86 152h2M98 152h2M106 152h2M116 152h12M132 152h12M152 152h14M168 152h2M172 152h8M182 152h6M216 152h1M219 152h1M248 152h5M86 153h2M98 153h2M106 153h2M116 153h12M132 153h12M152 153h14M168 153h2M172 153h8M182 153h6M216 153h1M219 153h1M239 153h1M248 153h5M22 154h1M25 154h1M86 154h2M98 154h2M116 154h12M136 154h8M152 154h14M170 154h18M192 154h8M236 154h1M248 154h5M86 155h2M98 155h2M116 155h12M136 155h8M152 155h14M170 155h18M192 155h8M237 155h1M248 155h5M86 156h2M96 156h2M114 156h6M122 156h2M130 156h10M144 156h16M164 156h4M172 156h20M194 156h6M204 156h2M248 156h5M86 157h2M96 157h2M114 157h6M122 157h2M130 157h10M144 157h16M164 157h4M172 157h20M194 157h6M204 157h2M248 157h5M96 158h2M104 158h2M108 158h2M112 158h8M122 158h6M130 158h10M144 158h16M164 158h4M172 158h8M184 158h16M204 158h2M220 158h2M232 158h12M248 158h5M96 159h2M104 159h2M108 159h2M112 159h8M122 159h6M130 159h10M144 159h16M164 159h4M172 159h7M184 159h16M204 159h2M220 159h2M232 159h12M248 159h5M104 160h10M116 160h6M124 160h12M138 160h10M149 160h2M152 160h12M168 160h8M180 160h12M196 160h14M212 160h6M232 160h20M104 161h10M116 161h6M124 161h12M138 161h10M149 161h2M152 161h12M168 161h8M180 161h12M196 161h14M212 161h6M232 161h20M116 162h6M124 162h6M138 162h10M149 162h2M152 162h12M168 162h8M180 162h12M196 162h14M212 162h4M224 162h10M238 162h14M116 163h6M124 163h6M138 163h10M149 163h2M152 163h12M168 163h8M180 163h12M196 163h14M212 163h4M224 163h10M238 163h14M116 164h4M124 164h28M156 164h48M208 164h4M220 164h20M244 164h4M116 165h4M124 165h28M156 165h48M208 165h4M220 165h20M244 165h4M128 166h8M144 166h8M160 166h4M192 166h8M202 166h1M208 166h4M220 166h16M128 167h8M144 167h8M160 167h4M192 167h8" />
<path stroke="#000002" d="M9 0h2M32 0h4M72 0h4M132 0h4M148 0h4M160 0h4M168 0h4M184 0h16M246 0h1M12 1h4M24 1h4M40 1h4M144 1h4M204 1h8M216 1h12M232 1h12M247 1h1M2 8h1M255 8h1M255 9h1M1 11h1M255 12h1M255 13h1M255 14h1M255 15h1M254 26h1M254 27h1M254 39h1M1 56h1M1 57h1M1 58h1M1 59h1M253 60h1M0 64h1M0 65h1M0 66h1M0 72h1M254 72h2M0 73h1M254 73h2M0 74h1M254 74h2M254 75h2M254 76h1M254 77h1M254 78h1M255 80h1M255 81h1M255 82h1M255 83h1M255 84h1M255 85h1M255 86h1M255 87h1M255 88h1M255 89h1M255 90h1M255 91h1M82 107h1M83 108h1M255 114h1M255 115h1M0 116h1M83 116h1M85 116h1M0 117h1M85 117h1M0 118h1M85 118h1M82 119h1M85 119h1M82 120h1M84 120h1M82 121h1M86 124h1M86 125h1M86 126h1M86 127h1M86 129h2M87 130h1M88 131h1M62 133h1M64 134h2M82 134h1M60 135h1M62 135h2M68 135h3M74 135h1M81 135h1M0 144h1M0 145h1M47 145h1M0 146h1M0 147h1M0 148h1M0 149h1M0 150h1M40 151h1M30 152h1M28 154h1M21 155h1M30 155h1M11 156h1M11 157h1M4 159h3" />
<path stroke="#020000" d="M36 0h4M80 0h7M92 0h4M104 0h8M120 0h8M172 0h4M216 0h4M8 1h2M96 1h8M112 1h8M128 1h4M8 2h2M246 2h1M7 3h1M248 3h1M5 4h1M250 5h1M3 7h1M0 16h1M0 17h1M0 18h1M0 19h1M0 24h1M0 25h1M0 26h1M0 27h1M0 32h1M0 33h1M0 34h1M0 35h1M0 40h1M255 40h1M0 41h1M255 41h1M0 42h1M255 42h1M0 43h1M255 43h1M253 45h1M253 46h1M253 47h1M253 48h1M253 49h1M253 50h1M253 51h1M253 56h1M0 60h1M0 61h1M0 62h1M254 80h1M254 81h1M254 82h1M253 88h1M253 89h1M253 90h1M253 91h1M253 92h1M253 93h1M253 94h1M253 95h1M253 96h2M253 97h2M253 98h2M253 99h2M0 100h1M253 100h2M0 101h1M254 101h1M0 102h1M82 102h1M253 102h2M253 103h2M82 105h1M88 107h1M1 108h1M81 108h1M1 109h1M87 109h1M1 110h1M81 110h1M85 110h1M85 111h1M82 113h1M127 113h1M82 116h1M84 116h1M84 117h1M84 118h1M0 120h1M86 120h1M0 121h1M84 121h1M0 122h1M82 122h1M84 122h1M0 123h1M82 123h1M81 124h1M84 124h1M81 125h1M84 125h1M81 126h1M84 126h1M87 126h1M100 126h1M84 127h1M87 127h1M96 127h1M0 128h1M82 128h3M94 128h1M0 129h1M80 129h3M85 129h1M93 129h1M95 129h1M0 130h1M79 130h1M81 130h2M89 130h1M91 130h1M0 131h1M82 131h1M86 131h1M92 131h1M95 131h1M83 132h1M65 133h1M58 134h1M60 134h1M72 134h2M80 134h2M59 135h1M61 135h1M72 135h1M0 136h1M0 137h1M53 137h1M0 138h1M55 138h1M52 139h1M54 139h1M1 140h1M1 141h1M48 141h1M1 142h1M1 143h1M50 143h1M47 147h1M42 148h1M43 150h1M39 151h1M0 152h1M31 152h1M25 153h1M29 154h3M0 155h2M18 155h2M27 155h3M31 155h1M3 156h1M10 156h1" />
<path stroke="#000100" d="M144 0h4M44 1h19M68 1h3M80 1h7M176 1h28M212 1h3M228 1h4M251 5h1M254 8h1M254 9h1M1 10h1M1 20h1M1 21h1M1 22h1M253 24h1M255 24h1M255 25h1M255 26h1M253 27h1M255 27h1M1 28h1M253 28h1M1 29h1M1 30h1M1 36h1M1 37h1M1 38h1M1 44h1M1 45h1M1 46h1M1 52h1M254 52h2M1 53h1M254 53h2M1 54h1M254 54h2M1 55h1M254 55h2M0 67h1M1 72h1M253 72h1M1 73h1M253 73h1M1 74h1M0 75h2M0 80h1M0 81h1M0 82h1M0 83h1M0 84h1M254 84h1M0 85h1M254 85h1M0 86h1M254 86h1M0 87h1M254 87h1M255 92h1M255 93h1M255 94h1M255 95h1M1 100h1M1 101h1M1 102h1M1 103h1M83 103h1M0 104h1M82 104h1M0 105h1M0 106h1M82 106h1M87 108h1M83 109h1M86 109h1M83 110h1M1 112h1M255 112h1M1 113h1M1 114h1M1 115h1M82 115h1M84 115h1M1 116h1M1 117h1M1 118h1M111 121h1M109 122h1M107 123h1M1 124h1M1 125h1M1 126h1M82 126h1M82 127h1M97 127h1M86 130h1M87 131h1M1 132h1M1 133h1M160 133h1M1 134h1M67 134h1M83 134h1M64 135h3M75 135h1M80 135h1M83 135h1M129 135h1M251 136h1M251 137h1M0 143h1M46 147h1M1 148h1M72 148h4M96 148h4M1 149h1M41 149h1M72 149h4M96 149h4M1 150h1M40 150h2M72 150h4M96 150h4M1 151h1M72 151h4M96 151h4M26 154h2M26 155h1M88 156h4M88 157h4M88 158h4M9 159h3M88 159h4M72 164h4M248 164h4M72 165h4M248 165h4M72 166h4M152 166h4M248 166h4M72 167h4M152 167h4M216 167h4M248 167h4" />
<path stroke="#010103" d="M247 0h1M253 61h1M253 62h1M154 104h1M84 113h1M84 114h1M243 124h1M101 127h2M244 127h1M244 128h6M251 128h1M94 129h1M244 129h8M244 130h8M91 131h1M244 131h8M83 133h1M248 135h1M250 135h2M55 136h1M228 137h1M247 137h1M232 140h3M188 141h1M188 142h1M188 143h1M168 148h1M0 154h1" />
<path stroke="#040100" d="M10 2h26M40 2h132M192 2h8M243 2h3M8 3h1M247 3h1M6 4h1M249 4h1M5 5h1M4 6h1M2 9h1M252 9h1M2 10h1M2 11h1M2 12h1M2 13h1M2 14h1M2 15h1M2 19h1M2 20h1M2 21h1M2 22h1M2 23h1M2 27h1M2 28h1M2 29h1M2 30h1M2 31h1M2 32h1M2 33h1M2 35h1M2 36h1M2 37h1M2 38h1M2 39h1M2 43h1M2 44h1M2 45h1M2 46h1M2 47h1M2 51h1M2 52h1M2 53h1M2 54h1M2 55h1M2 56h1M2 57h1M253 57h1M2 58h1M253 58h1M2 59h1M2 62h1M2 63h1M2 64h1M2 65h1M2 66h1M2 67h1M2 78h1M2 79h1M137 79h1M2 80h1M139 80h2M149 80h1M2 81h1M149 81h1M2 82h1M2 83h1M2 84h1M2 85h1M2 86h1M2 87h1M150 88h1M150 89h1M156 94h1M156 95h1M96 96h1M95 97h1M151 97h1M2 98h1M151 98h1M2 99h1M233 99h1M233 100h1M83 102h1M92 102h1M205 102h2M208 102h1M80 103h1M171 103h1M80 104h1M91 104h1M157 104h1M179 104h1M81 105h1M84 105h1M90 105h1M89 106h1M81 107h1M83 107h1M144 107h1M88 108h1M136 109h1M237 109h1M86 110h1M133 110h1M81 111h1M86 111h1M86 112h1M244 112h1M86 113h1M248 113h1M86 114h1M124 114h1M127 114h1M252 114h1M86 115h1M121 115h1M86 116h1M86 117h1M116 117h3M86 118h1M113 118h1M86 119h1M86 121h1M86 122h1M108 122h1M111 122h1M81 123h1M103 123h1M2 124h1M2 125h1M87 125h1M101 125h2M2 126h1M99 126h1M81 128h1M83 129h1M88 129h1M92 129h1M77 130h1M83 130h2M92 130h2M78 131h4M2 132h1M77 132h1M2 133h1M60 133h1M66 133h1M70 133h1M75 133h1M81 133h2M2 134h1M57 134h1M59 134h1M76 134h3M55 135h1M58 135h1M76 135h2M54 136h1M50 139h1M49 140h1M47 143h1M43 147h1M40 149h1M42 149h1M33 151h1M36 151h1M28 153h1M2 154h1M24 154h1M2 155h1M24 155h1M4 156h6" />
<path stroke="#0a0704" d="M36 2h4M175 2h5M184 2h4M204 2h8M214 2h2M220 2h4M2 16h1M2 17h1M2 18h1M2 34h1M2 40h1M2 41h1M2 42h1M2 50h1M2 60h1M2 61h1M2 69h1M2 70h1M2 71h1M2 74h1M141 74h1M2 75h1M137 75h1M2 76h1M137 76h1M2 77h1M137 78h1M138 80h1M150 86h1M150 87h1M2 88h1M2 89h1M2 90h1M151 90h1M2 91h1M151 91h1M2 92h1M151 92h1M2 93h1M2 94h1M2 95h1M151 96h1M156 96h1M152 98h4M154 99h2M2 100h1M156 100h1M196 100h1M232 100h1M2 101h1M156 101h1M197 101h1M2 102h1M156 102h1M207 102h1M2 103h1M156 103h1M170 103h1M227 103h1M160 104h1M176 104h3M180 104h1M219 104h1M227 104h4M161 105h1M228 105h3M232 105h1M2 106h1M146 106h1M150 106h2M181 106h1M229 106h3M2 107h1M87 107h1M149 107h1M231 107h1M131 111h1M240 111h1M2 112h1M131 112h1M136 112h1M2 113h1M242 113h1M2 114h1M251 114h1M2 115h1M127 115h1M136 115h1M2 116h1M117 116h1M2 117h1M2 118h1M108 121h1M97 126h1M2 127h1M2 128h1M2 129h1M79 129h1M2 130h1M2 131h1M2 135h1M2 140h1M2 141h1M2 147h1M32 151h1" />
<path stroke="#0f0705" d="M172 2h3M180 2h4M188 2h4M200 2h4M212 2h2M216 2h4M224 2h19M9 3h1M246 3h1M7 4h1M248 4h1M251 7h1M3 8h1M3 9h1M252 10h1M2 24h1M2 25h1M2 26h1M189 30h1M2 48h1M2 49h1M2 68h1M240 68h1M246 69h2M2 72h1M2 73h1M139 74h2M142 74h1M136 75h1M138 75h2M242 75h1M248 75h1M138 76h1M140 76h1M138 77h2M138 78h2M155 78h2M138 79h1M144 79h6M151 79h1M137 80h1M141 80h2M150 81h1M149 82h1M151 83h1M151 84h1M155 84h1M190 84h1M150 85h2M155 85h1M190 85h1M151 86h2M155 86h1M190 86h1M151 87h3M155 87h1M190 87h1M151 88h2M190 88h1M234 88h1M151 89h1M190 89h1M234 89h1M150 90h1M190 90h1M228 90h1M234 90h1M150 91h1M190 91h1M228 91h1M234 91h1M190 92h1M228 92h1M151 93h1M156 93h1M190 93h1M228 93h1M151 94h2M190 94h1M152 95h1M190 95h1M2 96h1M95 96h1M152 96h1M233 96h1M2 97h1M152 97h5M233 97h1M85 98h1M94 98h1M156 98h1M233 98h1M94 99h1M151 99h1M156 99h1M84 100h1M93 100h1M151 100h1M227 100h1M82 101h1M84 101h1M92 101h2M227 101h1M232 101h2M80 102h1M84 102h1M157 102h1M209 102h1M227 102h1M233 102h1M84 103h1M91 103h2M157 103h1M163 103h1M172 103h1M213 103h1M232 103h2M2 104h1M84 104h1M90 104h1M220 104h3M231 104h2M2 105h1M80 105h1M89 105h1M225 105h1M81 106h1M88 106h1M159 106h1M232 106h1M89 107h1M143 107h1M218 107h1M2 108h1M80 108h1M139 108h1M235 108h1M2 109h1M88 109h1M135 109h1M2 110h1M87 110h1M2 111h1M130 111h1M237 111h1M81 112h1M128 112h1M245 112h2M126 113h1M249 113h1M123 114h1M120 115h1M116 116h1M114 117h1M81 118h1M2 119h1M81 119h1M111 119h1M2 120h1M81 120h1M109 120h1M2 121h1M81 121h1M107 121h1M2 122h1M81 122h1M104 122h2M2 123h1M87 123h1M87 124h1M101 124h1M99 125h1M88 126h1M88 127h1M95 127h1M88 128h1M93 128h1M76 131h1M64 132h1M78 132h1M59 133h1M67 133h3M71 133h2M80 133h1M56 134h1M2 136h1M2 137h1M2 138h1M51 138h1M2 139h1M2 142h1M47 142h1M2 143h1M2 144h1M46 144h1M2 145h1M45 145h1M2 146h1M44 146h1M2 148h1M41 148h1M2 149h1M39 149h1M2 150h1M38 150h1M2 151h1M31 151h1M2 152h1M27 152h2M2 153h1M24 153h1M21 154h1M17 155h1" />
<path stroke="#2e241c" d="M10 3h1M4 7h1M3 10h1M190 30h8M189 31h2M192 31h6M189 32h9M190 33h8M190 34h8M190 35h8M190 36h8M190 37h8M190 38h8M190 39h8M190 40h8M190 41h8M190 42h7M190 43h7M190 44h7M190 45h7M190 46h7M190 47h7M190 48h7M176 49h28M208 49h1M210 49h1M171 50h37M214 50h2M171 51h37M171 52h37M171 53h37M232 53h3M175 54h32M232 54h6M178 55h28M232 55h6M179 56h27M232 56h6M185 57h12M198 57h2M231 57h7M190 58h8M231 58h7M191 59h7M231 59h6M191 60h7M233 60h4M147 61h1M191 61h7M233 61h4M147 62h3M191 62h7M234 62h3M147 63h4M191 63h7M234 63h3M148 64h4M191 64h7M233 64h4M148 65h5M191 65h7M234 65h3M148 66h5M191 66h7M235 66h2M149 67h4M191 67h7M235 67h2M148 68h4M191 68h7M236 68h4M241 68h1M148 69h4M191 69h7M235 69h10M148 70h4M191 70h7M235 70h11M148 71h4M191 71h7M235 71h10M149 72h1M191 72h7M235 72h11M146 73h3M155 73h3M191 73h7M236 73h10M144 74h4M149 74h1M152 74h8M191 74h8M237 74h6M143 75h5M149 75h12M191 75h8M240 75h1M143 76h18M191 76h8M235 76h1M143 77h5M149 77h2M154 77h1M156 77h6M191 77h8M234 77h2M157 78h1M190 78h9M233 78h3M190 79h9M234 79h2M190 80h9M233 80h2M190 81h9M232 81h3M191 82h8M229 82h6M149 83h1M191 83h8M229 83h6M192 84h6M229 84h6M191 85h5M229 85h6M191 86h1M229 86h6M191 87h1M229 87h4M234 87h1M229 88h4M228 89h5M229 90h2M232 90h1M229 91h1M156 92h1M234 92h1M190 98h1M190 99h1M190 100h1M157 101h1M199 102h1M162 103h1M189 103h1M197 103h1M189 104h1M213 104h1M215 104h1M223 104h1M190 105h1M212 105h1M214 105h1M213 106h3M217 106h1M193 107h1M215 107h3M217 108h1M239 110h1M77 133h1" />
<path stroke="#581c0c" d="M11 3h37M64 3h4M72 3h20M8 4h12M6 5h30M5 6h19M26 6h10M5 7h19M26 7h10M4 8h38M4 9h2M7 9h33M4 10h1M7 10h31M3 11h35M252 11h1M3 12h25M252 12h1M3 13h25M252 13h1M3 14h5M10 14h18M252 14h1M3 15h5M10 15h18M252 15h1M3 16h1M10 16h14M252 16h1M3 17h1M10 17h14M252 17h1M3 18h1M10 18h6M20 18h4M252 18h1M3 19h1M10 19h2M252 19h1M3 20h1M8 20h2M252 20h1M3 21h1M252 21h1M3 22h1M252 22h1M3 23h1M252 23h1M252 24h1M252 25h1M190 29h8M3 32h1M3 33h1M189 33h1M3 34h1M189 34h1M3 35h1M189 35h1M3 36h1M189 36h1M3 37h1M3 38h1M3 39h1M3 40h1M3 41h1M3 42h1M3 43h1M171 49h5M235 53h1M231 56h1M237 59h1M148 61h1M147 64h1M147 65h1M153 66h1M153 67h1M153 68h1M153 69h1M248 69h1M145 73h1M136 76h1M190 76h1M247 76h1M162 77h2M190 77h1M235 80h1M155 83h1M234 93h1M97 95h1M94 96h1M84 97h2M94 97h1M96 97h1M84 98h1M84 99h2M227 99h1M94 100h1M151 101h1M190 101h1M93 102h1M165 102h2M214 103h1M159 104h1M145 106h1M86 107h1M80 109h1M129 111h1M241 111h1M81 113h1M122 114h1M119 115h1M81 116h1M81 117h1M112 118h1M87 119h1M102 123h1M80 128h1M77 129h1M91 129h1M63 132h1M65 132h1M73 133h1M53 136h1M52 137h1M30 151h1M16 155h1" />
<path stroke="#6c210e" d="M48 3h16M68 3h4M92 3h4M99 3h1M52 4h12M90 4h10M102 4h2M48 5h18M90 5h6M50 6h6M58 6h9M69 6h13M87 6h5M52 7h40M54 8h38M54 9h10M66 9h16M52 10h22M52 11h20M52 12h16M52 13h16M44 14h14M60 14h4M44 15h14M40 16h13M40 17h13M34 18h15M34 19h14M32 20h4M38 20h1M40 20h12M56 20h2M60 20h1M32 21h8M44 21h19M20 22h16M58 22h6M18 23h2M24 23h12M60 23h4M3 24h1M14 24h4M24 24h3M28 24h2M32 24h2M60 24h4M3 25h1M10 25h6M25 25h2M28 25h2M32 25h2M60 25h4M68 25h1M3 26h1M8 26h7M27 26h2M56 26h11M252 26h1M3 27h1M6 27h6M27 27h1M56 27h10M252 27h1M3 28h1M6 28h2M12 28h2M27 28h4M60 28h4M3 29h1M6 29h4M12 29h2M28 29h2M60 29h4M189 29h1M3 30h1M6 30h8M28 30h4M56 30h8M3 31h1M6 31h7M28 31h4M56 31h7M10 32h2M29 32h1M56 32h7M10 33h2M56 33h7M11 34h1M22 34h1M24 34h5M55 34h8M19 35h3M28 35h1M55 35h9M20 36h1M60 36h5M12 37h2M20 37h1M61 37h5M14 38h2M18 38h2M62 38h3M15 39h3M62 39h3M18 40h4M62 40h1M20 41h2M59 41h3M21 42h15M50 42h2M21 43h2M35 43h1M44 43h2M3 44h1M20 44h2M34 44h2M44 44h4M3 45h2M18 45h3M34 45h5M40 45h3M3 46h8M12 46h6M36 46h5M3 47h14M4 48h1M8 48h2M4 49h2M8 49h2M20 55h2M28 57h3M4 59h1M8 60h6M16 60h1M4 61h1M8 61h9M3 62h1M6 62h1M8 62h2M12 62h8M3 63h1M6 63h1M12 63h8M3 64h1M10 64h14M28 64h1M3 65h1M6 65h6M16 65h6M3 66h5M3 67h1M242 68h1M106 121h1M78 129h1M23 153h1" />
<path stroke="#722812" d="M96 3h3M100 3h8M100 4h2M104 4h4M96 5h12M92 6h6M104 6h1M92 7h4M104 7h1M92 8h4M64 9h2M82 9h12M74 10h18M72 11h12M88 11h4M148 11h2M68 12h8M68 13h6M58 14h2M64 14h8M58 15h5M64 15h6M53 16h15M53 17h3M64 17h4M49 18h7M48 19h16M39 20h1M58 20h2M61 20h5M64 21h2M123 22h1M123 23h1M68 24h2M124 24h4M128 25h2M111 26h1M252 28h1M252 29h1M252 30h1M252 31h1M252 32h1M252 33h1M252 34h1M252 35h1M252 36h1M252 37h1M252 38h1M252 39h1M3 48h1M3 49h1M4 50h4M14 50h3M4 51h2M8 51h2M14 51h2M8 52h4M22 52h2M8 53h4M20 53h4M10 54h22M4 55h2M10 55h10M22 55h12M10 56h6M27 56h9M5 57h10M27 57h1M32 57h4M4 58h3M29 58h11M46 58h4M32 59h12M46 59h4M52 59h2M3 60h2M36 60h8M3 61h1M36 61h8M34 62h10M34 63h4M39 63h3M28 66h1M249 69h1M20 72h8M20 73h8M18 74h10M18 75h10M20 76h6M3 80h1M3 81h1M3 82h1M3 83h1M96 126h1M26 152h1M19 154h1" />
<path stroke="#633724" d="M108 3h12M123 3h7M245 3h1M251 8h1M189 37h1M189 38h1M189 39h1M197 42h1M197 43h1M197 44h1M252 44h1M197 45h1M197 46h1M252 46h1M197 47h1M252 47h1M189 48h1M197 48h2M202 48h16M252 48h1M170 49h1M204 49h4M209 49h1M211 49h7M3 50h1M208 50h6M216 50h2M252 50h1M3 51h1M208 51h10M252 51h1M3 52h1M208 52h10M252 52h1M3 53h1M208 53h10M252 53h1M3 54h1M171 54h4M207 54h11M231 54h1M252 54h1M3 55h1M171 55h7M206 55h12M231 55h1M252 55h1M3 56h1M172 56h7M206 56h12M3 57h1M172 57h13M197 57h1M200 57h17M3 58h1M178 58h9M188 58h2M198 58h1M3 59h1M190 59h1M147 60h6M190 60h1M231 60h2M237 60h1M149 61h4M190 61h1M231 61h2M150 62h3M190 62h1M231 62h3M151 63h2M190 63h1M231 63h3M152 64h1M190 64h1M231 64h2M153 65h1M190 65h1M198 65h1M231 65h3M147 66h1M190 66h1M198 66h1M231 66h4M190 67h1M198 67h1M229 67h6M152 68h1M190 68h1M198 68h1M229 68h7M152 69h1M190 69h1M198 69h1M230 69h5M152 70h2M164 70h1M190 70h1M198 70h1M230 70h5M249 70h1M152 71h2M158 71h7M190 71h1M198 71h1M231 71h4M249 71h1M150 72h14M190 72h1M198 72h1M232 72h3M144 73h1M149 73h6M158 73h7M190 73h1M198 73h1M232 73h4M138 74h1M148 74h1M150 74h2M160 74h7M190 74h1M230 74h7M148 75h1M161 75h7M190 75h1M230 75h6M238 75h2M161 76h6M230 76h5M246 76h1M164 77h1M230 77h4M158 78h1M229 78h4M229 79h5M143 80h1M229 80h4M229 81h3M235 81h1M235 82h1M149 84h1M228 88h1M156 91h1M150 93h1M234 94h1M96 95h1M227 98h1M157 100h1M199 101h1M151 102h1M164 102h1M190 102h1M203 102h2M173 103h1M233 104h1M91 105h1M226 105h1M233 105h1M142 107h1M233 107h1M87 117h1M87 118h1M87 120h1M87 121h1M88 125h1M84 129h1M79 132h1M82 132h1M58 133h1" />
<path stroke="#84351b" d="M120 3h3M130 3h2M142 3h6M120 4h3M130 4h22M116 5h7M126 5h3M130 5h20M114 6h16M131 6h15M114 7h15M131 7h4M136 7h2M142 7h2M249 7h1M108 8h28M151 8h4M107 9h29M146 9h3M159 9h1M98 10h36M142 10h2M98 11h34M140 11h2M169 11h1M94 12h36M138 12h2M226 12h4M232 12h6M87 13h3M92 13h34M137 13h2M224 13h14M86 14h36M131 14h7M156 14h2M164 14h1M224 14h14M86 15h36M131 15h3M154 15h1M156 15h8M224 15h6M232 15h5M240 15h1M243 15h2M76 16h38M116 16h4M129 16h3M145 16h17M223 16h1M231 16h11M76 17h38M120 17h2M126 17h4M142 17h12M232 17h20M75 18h27M107 18h3M112 18h1M116 18h11M128 18h2M141 18h4M232 18h20M75 19h23M116 19h10M136 19h8M232 19h4M240 19h12M74 20h26M109 20h2M115 20h5M141 20h7M244 20h8M74 21h26M108 21h4M116 21h2M248 21h4M74 22h16M91 22h5M108 22h2M111 22h1M114 22h4M134 22h2M73 23h17M93 23h3M100 23h3M108 23h2M111 23h4M116 23h1M134 23h8M156 23h2M162 23h2M75 24h1M86 24h3M95 24h2M100 24h4M106 24h3M135 24h1M142 24h1M150 24h2M157 24h2M94 25h2M135 25h1M158 25h3M125 32h1M252 40h1M252 41h1M252 42h1M252 43h1M252 45h1M252 49h1M52 50h3M60 50h4M68 50h2M76 50h6M52 51h4M59 51h13M74 51h6M82 51h2M54 52h30M54 53h24M80 53h4M236 53h1M55 54h1M58 54h18M55 55h1M58 55h22M60 56h24M252 56h1M61 57h19M83 57h1M252 57h1M60 58h8M70 58h10M61 59h7M70 59h2M59 60h6M58 61h3M58 62h2M3 70h1M3 71h1M3 72h1M3 73h1M3 74h1M3 75h1M48 76h2M48 77h2M229 77h1M48 78h4M48 79h4M48 80h4M50 81h2M26 82h2M48 82h4M24 83h16M50 83h2M18 86h2M3 88h1M3 89h1M3 90h1M3 91h1M3 92h2M7 92h1M12 92h8M3 93h2M12 93h8M3 94h1M97 94h1M3 95h1M8 95h3M91 102h1M80 110h1M81 115h1M110 119h1M94 127h1M90 129h1M62 132h1M54 135h1M49 139h1M48 140h1M46 143h1M37 150h1" />
<path stroke="#8d3d1f" d="M132 3h10M148 3h97M152 4h38M194 4h4M202 4h3M210 4h18M231 4h14M246 4h2M150 5h22M176 5h1M184 5h1M186 5h4M202 5h2M214 5h31M247 5h2M146 6h18M186 6h4M194 6h5M200 6h4M213 6h3M221 6h7M244 6h6M135 7h1M138 7h4M144 7h7M156 7h6M188 7h3M196 7h2M200 7h3M247 7h2M250 7h1M136 8h14M158 8h3M196 8h4M249 8h2M136 9h10M196 9h4M248 9h4M134 10h8M196 10h4M244 10h6M251 10h1M132 11h8M196 11h4M232 11h2M236 11h16M130 12h8M195 12h5M210 12h2M213 12h3M224 12h2M238 12h14M126 13h10M196 13h2M209 13h1M222 13h2M239 13h2M244 13h8M122 14h9M174 14h2M196 14h1M200 14h1M239 14h5M245 14h7M122 15h9M196 15h1M201 15h1M208 15h1M242 15h1M246 15h6M114 16h2M120 16h9M167 16h2M178 16h1M195 16h1M201 16h1M208 16h1M242 16h4M248 16h4M114 17h6M122 17h2M167 17h2M194 17h1M208 17h1M213 17h1M102 18h5M110 18h2M113 18h3M146 18h6M156 18h5M167 18h2M200 18h1M208 18h3M222 18h6M98 19h18M145 19h7M160 19h2M209 19h1M220 19h8M100 20h8M111 20h1M113 20h1M150 20h4M158 20h2M228 20h3M236 20h2M100 21h8M112 21h3M196 21h2M232 21h11M96 22h4M103 22h3M243 22h7M104 23h2M248 23h4M251 24h1M155 26h2M158 26h1M132 32h2M189 40h1M199 48h3M170 50h1M94 51h2M170 51h1M170 52h1M231 53h1M91 54h1M91 55h1M89 56h1M92 56h1M171 56h1M92 57h1M171 57h1M92 58h3M174 58h4M187 58h1M252 58h1M92 59h4M252 59h1M87 60h1M90 60h6M252 60h1M68 61h1M87 61h8M252 61h1M66 62h3M92 62h1M252 62h1M64 63h2M252 63h1M198 64h1M252 64h1M252 65h1M252 66h1M228 67h1M252 67h1M252 68h1M229 69h1M252 69h1M163 70h1M165 70h1M252 70h1M157 71h1M165 71h1M252 71h1M164 72h1M231 72h1M252 72h1M165 73h2M168 73h1M230 73h2M252 73h1M167 74h2M252 74h1M168 75h1M252 75h1M167 76h2M252 76h1M136 77h1M252 77h1M64 78h4M252 78h1M60 79h8M252 79h1M66 80h4M252 80h1M66 81h4M252 81h1M70 82h2M252 82h1M70 83h2M235 83h1M252 83h1M70 84h2M252 84h1M70 85h2M252 85h1M70 86h2M50 92h2M50 93h1M96 94h1M3 96h1M3 97h1M3 98h1M3 99h1M199 100h1M167 102h1M210 102h1M224 104h1M252 112h1M81 114h1M87 116h1M115 116h1M87 122h1M98 125h1M80 127h1M61 132h1M81 132h1M74 133h1M79 133h1M42 147h1M3 155h1" />
<path stroke="#671b0b" d="M20 4h32M64 4h26M36 5h12M66 5h24M24 6h2M36 6h14M56 6h2M67 6h2M82 6h5M24 7h2M36 7h16M42 8h12M6 9h1M40 9h14M5 10h2M38 10h14M38 11h14M28 12h24M28 13h24M8 14h2M28 14h16M8 15h2M28 15h16M4 16h6M24 16h16M4 17h6M24 17h16M4 18h6M16 18h4M24 18h10M4 19h6M12 19h22M4 20h4M10 20h22M4 21h28M40 21h4M4 22h16M36 22h22M4 23h14M36 23h24M4 24h10M27 24h1M30 24h2M34 24h26M4 25h6M27 25h1M30 25h2M34 25h26M4 26h4M29 26h27M4 27h2M28 27h28M4 28h2M31 28h29M4 29h2M30 29h30M4 30h2M32 30h24M4 31h2M32 31h24M4 32h6M30 32h26M4 33h6M29 33h27M4 34h7M23 34h1M29 34h26M4 35h8M22 35h6M29 35h26M4 36h8M21 36h39M4 37h8M21 37h40M4 38h10M20 38h42M4 39h11M18 39h44M4 40h14M22 40h40M4 41h16M22 41h37M4 42h17M36 42h14M4 43h17M36 43h8M4 44h16M36 44h8M5 45h13M39 45h1M11 46h1M7 61h1M4 62h2M7 62h1M10 62h2M4 63h2M7 63h5M4 64h6M4 65h2" />
<path stroke="#782a13" d="M108 4h6M116 4h3M124 4h4M129 4h1M108 5h6M124 5h2M98 6h6M105 6h5M96 7h8M105 7h5M96 8h10M94 9h8M151 9h1M92 10h2M146 10h8M160 10h1M84 11h4M92 11h3M143 11h5M150 11h5M158 11h4M76 12h8M85 12h5M144 12h10M160 12h2M74 13h11M144 13h8M72 14h6M81 14h5M139 14h1M70 15h6M80 15h1M82 15h3M136 15h3M68 16h7M56 17h8M68 17h6M131 17h1M56 18h17M134 18h2M64 19h8M127 19h1M134 19h1M66 20h6M123 20h7M67 21h5M123 21h7M68 22h4M120 22h3M124 22h8M68 23h4M118 23h5M124 23h8M70 24h2M116 24h8M128 24h4M72 25h14M112 25h16M130 25h2M76 26h2M84 26h1M86 26h3M110 26h1M116 26h8M128 26h2M76 27h2M84 27h1M86 27h2M110 27h14M77 28h1M106 28h1M108 28h4M106 29h4M20 30h4M70 30h2M20 31h4M70 38h1M70 39h1M24 46h2M24 47h3M28 47h4M48 47h3M18 48h4M28 48h17M18 49h4M34 49h2M17 50h11M6 51h2M16 51h15M4 52h4M12 52h10M24 52h10M36 52h2M4 53h4M12 53h8M24 53h10M36 53h2M4 54h6M32 54h8M6 55h4M34 55h6M48 55h4M4 56h6M22 56h2M26 56h1M36 56h4M45 56h7M4 57h1M16 57h4M36 57h18M7 58h3M16 58h4M40 58h6M50 58h6M8 59h2M12 59h8M28 59h4M50 59h2M54 59h2M5 60h2M24 60h1M32 60h4M44 60h9M26 61h10M44 61h8M32 62h2M44 62h8M32 63h2M38 63h1M42 63h10M32 64h1M34 64h1M36 64h6M30 66h1M18 67h4M24 67h4M32 67h1M3 68h1M8 68h4M14 68h2M35 68h1M14 69h2M34 69h6M26 70h2M34 70h6M20 71h8M35 71h1M40 71h2M14 72h6M28 72h4M14 73h6M28 73h4M9 74h7M28 74h4M8 75h4M28 75h8M3 76h1M8 76h3M26 76h10M3 77h2M7 77h3M28 77h8M3 78h1M28 78h8M3 79h2M28 79h8M4 80h1M7 80h3M12 80h11M4 81h1M6 81h14M4 82h10M4 83h1M6 83h2M10 83h2M3 84h3M3 85h2M3 86h1M3 87h1M81 101h1" />
<path stroke="#7c2b13" d="M114 4h2M119 4h1M123 4h1M128 4h1M114 5h2M123 5h1M129 5h1M110 6h4M130 6h1M110 7h4M129 7h2M106 8h2M102 9h5M149 9h2M152 9h3M161 9h3M94 10h4M144 10h2M154 10h6M161 10h3M95 11h3M142 11h1M155 11h3M162 11h2M84 12h1M90 12h4M140 12h4M154 12h6M162 12h2M85 13h2M90 13h2M139 13h5M152 13h11M78 14h3M138 14h1M140 14h16M159 14h2M76 15h4M81 15h1M85 15h1M134 15h2M139 15h15M231 15h1M75 16h1M132 16h11M74 17h2M130 17h1M132 17h10M73 18h2M127 18h1M130 18h4M136 18h4M72 19h3M126 19h1M128 19h6M135 19h1M72 20h2M120 20h3M130 20h11M72 21h2M118 21h5M130 21h16M72 22h2M118 22h2M132 22h2M140 22h6M159 22h1M72 23h1M132 23h2M144 23h4M158 23h2M72 24h2M76 24h9M110 24h6M132 24h3M147 24h1M86 25h3M110 25h2M132 25h2M85 26h1M89 26h3M106 26h4M124 26h4M130 26h3M85 27h1M88 27h6M104 27h4M124 27h6M132 27h1M74 28h3M84 28h10M104 28h2M112 28h12M72 29h22M104 29h2M110 29h14M72 30h2M104 30h18M104 31h18M22 32h2M67 32h2M70 32h1M106 32h2M68 33h1M70 33h1M68 34h1M68 35h1M70 36h2M70 37h2M71 38h1M71 39h1M68 40h3M68 41h2M66 42h2M65 43h1M64 44h1M54 46h2M51 47h2M22 48h6M45 48h5M22 49h12M36 49h10M28 50h12M44 50h2M31 51h11M34 52h2M38 52h6M48 52h6M34 53h2M38 53h6M48 53h6M40 54h15M56 54h2M40 55h8M52 55h3M56 55h2M24 56h2M40 56h5M52 56h6M20 57h1M22 57h1M54 57h4M60 57h1M10 58h6M21 58h1M26 58h1M56 58h2M6 59h2M20 59h1M24 59h2M56 59h2M25 60h7M53 60h3M52 61h4M52 62h2M52 63h2M33 64h1M42 64h1M48 64h2M32 65h1M34 65h4M31 66h2M16 67h2M22 67h2M31 67h1M33 67h5M24 68h11M36 68h6M3 69h9M16 69h4M23 69h11M40 69h4M12 70h14M28 70h6M40 70h4M12 71h8M28 71h7M36 71h4M42 71h2M10 72h4M32 72h11M9 73h5M32 73h10M8 74h1M32 74h8M36 75h3M4 76h4M36 76h4M5 77h2M36 77h4M36 78h2M36 79h2M23 80h9M20 81h8M14 82h6M8 83h2M12 83h7M6 84h5M5 85h5M4 86h2M4 87h2M35 150h1" />
<path stroke="#8c391c" d="M190 4h4M198 4h4M172 5h4M185 5h1M190 5h12M164 6h2M172 6h6M190 6h4M199 6h1M191 7h5M198 7h2M150 8h1M156 8h2M161 8h1M188 8h4M188 9h4M189 10h1M250 10h1M212 11h2M234 11h2M181 12h1M212 12h1M230 12h2M136 13h1M171 13h1M177 13h1M179 13h2M198 13h2M213 13h3M217 13h1M238 13h1M167 14h1M169 14h1M176 14h4M187 14h3M192 14h1M197 14h2M208 14h2M215 14h1M220 14h2M223 14h1M238 14h1M244 14h1M166 15h2M178 15h3M190 15h1M197 15h1M209 15h1M216 15h4M223 15h1M237 15h3M241 15h1M245 15h1M162 16h3M179 16h1M181 16h1M184 16h2M190 16h1M212 16h3M224 16h4M246 16h2M124 17h2M154 17h11M179 17h3M184 17h2M190 17h2M200 17h1M209 17h4M214 17h2M222 17h8M145 18h1M152 18h4M161 18h3M179 18h1M185 18h2M190 18h4M218 18h4M228 18h3M144 19h1M152 19h8M162 19h2M167 19h2M185 19h2M190 19h2M195 19h1M218 19h2M228 19h4M238 19h2M108 20h1M112 20h1M114 20h1M148 20h2M154 20h4M170 20h1M192 20h4M198 20h1M231 20h5M238 20h5M115 21h1M160 21h4M170 21h1M190 21h4M243 21h5M90 22h1M100 22h3M106 22h2M113 22h1M169 22h2M250 22h2M90 23h3M96 23h4M103 23h1M106 23h2M171 23h1M97 24h3M138 24h1M152 24h1M154 24h1M138 25h2M142 25h1M154 25h1M156 25h1M167 25h3M137 26h1M146 26h1M154 26h1M157 26h1M159 26h1M148 27h1M154 27h3M161 27h3M165 27h1M164 28h1M138 29h1M154 29h1M138 30h1M131 32h1M134 32h2M130 33h4M95 35h1M85 42h2M85 43h2M100 43h1M93 44h3M94 45h5M96 46h8M96 47h6M104 47h5M96 48h2M104 48h2M94 49h4M93 50h4M91 51h3M88 52h5M78 53h2M87 53h5M76 54h15M80 55h11M84 56h5M90 56h2M82 57h1M84 57h8M68 58h2M83 58h9M68 59h2M83 59h1M85 59h7M65 60h11M86 60h1M88 60h2M62 61h6M69 61h3M86 61h1M62 62h4M61 63h3M58 71h2M57 72h3M57 73h3M57 74h7M57 75h7M54 76h12M55 77h11M56 78h4M56 79h4M58 80h8M58 81h8M60 82h10M62 83h8M68 84h2M68 85h2M68 86h2M68 87h3M59 88h11M58 89h10M48 90h14M48 91h12M44 92h6M40 93h10M51 93h1M26 94h6M38 94h10M26 95h6M36 95h8M47 95h1M4 96h8M21 96h19M85 96h1M4 97h2M8 97h32M4 98h7M16 98h4" />
<path stroke="#96421f" d="M205 4h5M228 4h3M204 5h8M245 5h2M204 6h1M208 6h5M220 6h1M228 6h16M151 7h5M204 7h1M210 7h37M202 8h2M212 8h37M202 9h2M210 9h5M216 9h4M226 9h4M232 9h16M201 10h3M211 10h1M214 10h1M226 10h4M232 10h12M201 11h3M209 11h1M215 11h1M220 11h12M192 12h2M201 12h1M207 12h3M216 12h4M221 12h3M184 13h2M194 13h1M201 13h1M207 13h1M219 13h3M241 13h3M171 14h1M183 14h2M202 14h1M206 14h1M170 15h6M194 15h2M202 15h2M206 15h1M169 16h6M193 16h1M202 16h2M206 16h1M169 17h1M171 17h1M175 17h1M202 17h1M206 17h1M169 18h2M172 18h1M175 18h2M201 18h1M207 18h1M211 18h1M213 18h1M172 19h2M176 19h1M180 19h2M200 19h1M207 19h2M210 19h2M213 19h1M172 20h2M176 20h10M200 20h1M213 20h2M217 20h1M220 20h8M172 21h2M186 21h1M199 21h1M217 21h1M228 21h3M173 22h1M187 22h1M196 22h3M235 22h8M192 23h6M242 23h1M173 24h1M248 24h2M250 25h1M140 26h4M168 26h2M139 27h1M146 27h1M158 27h2M167 27h1M139 28h1M160 28h2M166 28h2M140 29h1M163 29h1M165 29h1M140 30h1M156 30h1M140 31h1M141 32h1M141 33h1M134 34h1M189 41h1M120 43h3M125 43h1M117 44h1M119 44h7M120 45h6M113 46h3M113 47h3M110 48h4M106 49h4M104 50h4M104 51h2M100 52h5M96 53h6M93 54h7M93 55h3M104 55h2M93 56h3M100 56h8M93 57h15M95 58h13M96 59h11M78 60h2M82 60h1M84 60h1M96 60h3M104 60h1M85 61h1M96 61h3M87 62h1M93 62h5M86 63h1M88 63h9M90 64h2M96 64h1M90 65h2M95 65h2M82 66h1M227 66h1M82 67h2M80 68h2M84 68h2M243 68h1M80 69h2M84 69h2M64 70h2M68 70h2M96 70h1M68 71h2M96 71h1M73 74h3M72 75h4M72 76h7M73 77h7M73 78h7M73 79h7M73 80h7M73 81h9M74 82h9M74 83h10M75 84h9M75 85h9M74 86h8M252 86h1M74 87h6M228 87h1M252 87h1M76 88h2M252 88h1M76 89h2M252 89h1M74 90h2M252 90h1M74 91h2M252 91h1M68 92h6M252 92h1M64 93h6M252 93h1M52 94h10M252 94h1M54 95h6M252 95h1M50 96h4M48 97h4M42 98h4M36 99h10M3 100h1M36 100h6M3 101h1M36 101h6M3 102h1M18 102h6M28 102h8M252 102h1M3 103h21M28 103h8M252 103h1M252 104h1M85 105h1M252 105h1M252 106h1M252 107h1M252 108h1M252 109h1M252 110h1M252 111h1M125 113h1M76 130h1M29 151h1" />
<path stroke="#943c1c" d="M245 4h1M177 5h7M212 5h2M166 6h6M178 6h8M216 6h4M162 7h2M184 7h4M203 7h1M184 8h4M192 8h4M200 8h2M192 9h4M200 9h2M190 10h6M200 10h1M212 10h2M184 11h2M190 11h6M200 11h1M210 11h2M214 11h1M182 12h10M194 12h1M200 12h1M181 13h3M186 13h8M195 13h1M200 13h1M208 13h1M218 13h1M170 14h1M172 14h2M180 14h3M185 14h2M193 14h3M201 14h1M207 14h1M168 15h2M176 15h2M181 15h5M192 15h2M207 15h1M175 16h3M182 16h2M192 16h1M194 16h1M207 16h1M176 17h3M182 17h2M192 17h2M201 17h1M207 17h1M216 17h1M171 18h1M177 18h2M180 18h5M212 18h1M214 18h4M169 19h3M177 19h3M182 19h3M212 19h1M214 19h4M160 20h4M171 20h1M186 20h1M199 20h1M215 20h2M218 20h2M171 21h1M187 21h2M194 21h2M198 21h1M231 21h1M171 22h2M188 22h8M172 23h2M189 23h3M243 23h5M172 24h1M250 24h1M140 25h2M170 25h3M251 25h1M138 26h2M144 26h2M166 26h2M137 27h2M147 27h1M157 27h1M160 27h1M166 27h1M138 28h1M150 28h2M156 28h1M162 28h1M165 28h1M139 29h1M152 29h1M155 29h2M164 29h1M139 30h1M154 30h2M139 31h1M136 32h5M134 33h7M92 34h2M131 34h3M79 35h1M92 35h2M96 35h3M130 35h4M90 36h8M116 36h2M128 36h8M90 37h8M114 37h1M116 37h2M122 37h11M90 38h16M110 38h16M90 39h16M108 39h16M92 40h25M119 40h1M122 40h2M92 41h25M119 41h1M122 41h2M92 42h25M119 42h1M122 42h2M92 43h8M102 43h15M119 43h1M123 43h1M104 44h13M104 45h16M104 46h9M102 47h2M109 47h4M98 48h6M106 48h4M98 49h8M97 50h7M96 51h8M93 52h7M92 53h4M92 54h1M92 55h1M76 60h2M80 60h2M85 60h1M72 61h10M95 61h1M69 62h11M86 62h1M88 62h4M66 63h14M64 64h14M64 65h13M66 66h10M66 67h14M58 68h2M62 68h9M58 69h12M58 70h6M60 71h8M60 72h8M60 73h8M64 74h8M64 75h8M66 76h6M66 77h7M60 78h4M68 78h5M68 79h5M70 80h3M70 81h3M72 82h2M72 83h2M72 84h3M72 85h3M72 86h2M71 87h3M70 88h6M68 89h8M62 90h12M60 91h14M52 92h16M52 93h12M48 94h4M44 95h3M48 95h6M40 96h10M40 97h8M11 98h5M20 98h22M4 99h32M4 100h32M4 101h32M4 102h14M24 102h4M24 103h4" />
<path stroke="#13130e" d="M249 5h1M250 6h1M191 31h1M148 67h1M245 69h1M246 70h3M245 71h4M148 72h1M246 72h3M246 73h3M143 74h1M243 74h6M140 75h3M241 75h1M243 75h5M141 76h2M140 77h3M148 77h1M151 77h3M155 77h1M141 78h14M142 79h2M152 79h2M150 80h1M152 80h3M153 81h2M151 82h1M153 82h2M190 82h1M152 83h3M190 83h1M154 84h1M191 84h1M198 84h1M154 85h1M196 85h3M154 86h1M192 86h7M154 87h1M192 87h7M233 87h1M153 88h3M191 88h8M233 88h1M154 89h2M191 89h8M233 89h1M154 90h2M191 90h8M231 90h1M233 90h1M154 91h2M191 91h8M230 91h4M150 92h1M154 92h2M191 92h8M229 92h5M154 93h2M192 93h7M229 93h5M155 94h1M192 94h7M229 94h5M155 95h1M192 95h7M228 95h6M190 96h1M192 96h5M198 96h1M229 96h2M232 96h1M190 97h1M192 97h5M198 97h1M229 97h2M232 97h1M95 98h1M196 98h1M198 98h1M228 98h2M196 99h1M198 99h1M228 99h1M196 101h1M165 103h5M190 103h1M196 103h1M198 103h10M209 103h4M163 104h1M166 104h1M168 104h8M182 104h2M185 104h2M188 104h1M192 104h2M195 104h10M207 104h6M214 104h1M216 104h3M157 105h1M164 105h5M171 105h1M175 105h1M179 105h11M191 105h2M197 105h8M207 105h5M213 105h1M215 105h5M222 105h3M84 106h1M90 106h1M152 106h1M155 106h3M160 106h1M167 106h1M172 106h4M178 106h2M182 106h1M184 106h4M189 106h2M192 106h5M198 106h15M216 106h1M218 106h3M222 106h1M224 106h3M147 107h1M150 107h1M152 107h1M159 107h1M161 107h1M165 107h1M167 107h6M174 107h1M179 107h3M184 107h9M194 107h3M198 107h2M205 107h2M209 107h1M211 107h4M222 107h1M225 107h4M138 108h1M158 108h5M170 108h8M179 108h3M183 108h1M187 108h9M206 108h1M209 108h4M214 108h3M218 108h1M228 108h4M233 108h2M171 109h7M179 109h3M183 109h1M186 109h9M199 109h3M203 109h3M207 109h1M211 109h1M214 109h1M216 109h3M228 109h4M233 109h4M161 110h1M172 110h1M175 110h1M190 110h2M197 110h2M201 110h2M204 110h2M207 110h1M214 110h1M216 110h3M230 110h1M233 110h2M236 110h1M238 110h1M162 111h2M180 111h1M184 111h4M190 111h4M202 111h3M206 111h2M211 111h1M213 111h2M218 111h2M228 111h1M233 111h2M236 111h1M238 111h1M180 112h1M183 112h1M186 112h1M189 112h1M198 112h7M206 112h3M210 112h2M215 112h2M218 112h2M234 112h4M239 112h3M179 113h1M186 113h1M192 113h1M200 113h2M205 113h4M211 113h5M219 113h1M228 113h2M238 113h1M240 113h1M246 113h1M188 114h5M196 114h4M202 114h2M211 114h1M213 114h3M236 114h2M239 114h3M244 114h3M248 114h2M189 115h3M193 115h3M206 115h2M214 115h4M235 115h1M237 115h1M244 115h2M250 115h1M177 116h1M182 116h1M186 116h2M190 116h1M199 116h1M209 116h1M211 116h1M223 116h2M227 116h1M183 117h2M187 117h1M189 117h2M221 117h1M165 118h1M175 118h2M178 118h2M181 118h2M184 118h1M186 118h2M192 118h5M210 118h2M251 118h1M174 119h2M179 119h2M182 119h1M190 119h1M193 119h3M210 119h1M219 119h1M221 119h1M226 119h1M198 120h2M218 120h1M227 120h1M229 120h1M174 121h1M184 121h1M215 121h1M156 122h1M185 122h1M174 123h1M195 123h1M183 128h1M219 131h1M75 132h1M249 132h1M20 154h1" />
<path stroke="#9b431f" d="M205 6h3M205 7h5M204 8h1M208 8h4M204 9h1M208 9h2M215 9h1M220 9h6M230 9h2M209 10h2M215 10h11M230 10h2M208 11h1M216 11h4M202 12h2M206 12h1M220 12h1M202 13h1M206 13h1M203 14h3M204 15h2M204 16h2M170 17h1M172 17h3M203 17h3M173 18h2M202 18h1M204 18h3M174 19h2M201 19h2M206 19h1M174 20h2M201 20h1M206 20h7M174 21h12M200 21h1M207 21h3M212 21h5M218 21h10M174 22h4M186 22h1M199 22h1M214 22h5M226 22h9M174 23h2M187 23h2M198 23h2M215 23h1M229 23h13M174 24h1M189 24h9M238 24h10M173 25h1M246 25h4M170 26h4M250 26h2M140 27h2M144 27h2M168 27h4M140 28h2M148 28h2M157 28h3M141 29h1M150 29h2M157 29h2M162 29h1M166 29h2M141 30h2M152 30h2M157 30h2M141 31h2M155 31h4M142 32h2M142 33h2M135 34h8M134 35h4M136 36h2M133 37h4M126 38h11M124 39h7M132 39h4M117 40h2M120 40h2M124 40h5M117 41h2M120 41h2M124 41h4M117 42h2M120 42h2M124 42h4M117 43h2M124 43h1M126 43h4M118 44h1M126 44h4M126 45h4M116 46h10M116 47h4M114 48h2M110 49h6M108 50h2M106 51h2M105 52h1M102 53h2M100 54h5M96 55h8M96 56h4M108 56h4M108 57h4M108 58h4M107 59h5M83 60h1M99 60h5M105 60h3M111 60h1M82 61h3M99 61h3M80 62h6M98 62h2M80 63h6M87 63h1M97 63h3M78 64h12M92 64h4M97 64h1M77 65h13M92 65h3M97 65h1M76 66h6M83 66h17M80 67h2M84 67h17M71 68h9M82 68h2M86 68h17M70 69h10M82 69h2M86 69h18M66 70h2M70 70h26M97 70h7M70 71h26M97 71h8M68 72h36M68 73h36M72 74h1M76 74h27M76 75h27M79 76h21M80 77h20M80 78h8M80 79h8M80 80h10M92 80h1M82 81h8M83 82h7M84 83h6M84 84h4M84 85h4M82 86h2M80 87h4M78 88h5M78 89h4M76 90h4M76 91h4M74 92h2M70 93h6M62 94h8M60 95h4M54 96h4M52 97h4M46 98h8M46 99h4M42 100h4M42 101h4M36 102h14M36 103h14M4 104h40M4 105h40M4 106h36M4 107h36M8 108h4M16 108h16M36 108h4M16 109h16" />
<path stroke="#8b3418" d="M164 7h20M155 8h1M162 8h10M178 8h6M168 9h1M181 9h7M168 10h1M182 10h7M168 11h1M180 11h4M186 11h4M167 12h7M177 12h4M165 13h6M172 13h5M178 13h1M210 13h3M216 13h1M165 14h2M168 14h1M190 14h2M199 14h1M210 14h5M216 14h4M222 14h1M164 15h2M186 15h4M191 15h1M198 15h3M210 15h6M220 15h3M165 16h2M180 16h1M186 16h4M191 16h1M196 16h5M209 16h3M215 16h8M228 16h3M165 17h2M186 17h4M195 17h5M217 17h5M230 17h2M164 18h3M187 18h3M194 18h6M231 18h1M164 19h3M187 19h3M192 19h3M196 19h4M236 19h2M164 20h6M187 20h5M196 20h2M243 20h1M148 21h12M164 21h6M189 21h1M112 22h1M149 22h7M162 22h7M149 23h7M164 23h7M89 24h6M104 24h2M136 24h2M139 24h3M153 24h1M155 24h2M163 24h9M92 25h2M96 25h4M136 25h2M143 25h3M150 25h4M155 25h1M157 25h1M164 25h3M98 26h2M135 26h2M147 26h7M160 26h6M135 27h2M149 27h5M164 27h1M136 28h2M152 28h4M163 28h1M137 29h1M153 29h1M128 30h10M128 31h11M78 32h1M90 32h1M92 32h2M96 32h2M126 32h5M77 33h10M88 33h11M126 33h4M78 34h14M94 34h8M104 34h2M112 34h4M118 34h2M125 34h6M78 35h1M80 35h12M94 35h1M99 35h8M112 35h4M125 35h5M80 36h10M98 36h18M118 36h10M80 37h10M98 37h16M115 37h1M118 37h4M80 38h10M106 38h4M80 39h10M106 39h2M75 40h3M80 40h12M75 41h17M75 42h10M87 42h5M74 43h11M87 43h5M101 43h1M78 44h15M96 44h8M78 45h16M99 45h5M76 46h8M89 46h7M76 47h4M90 47h6M62 48h2M66 48h4M74 48h6M89 48h7M58 49h6M66 49h4M74 49h6M88 49h6M56 50h2M64 50h4M84 50h9M80 51h2M84 51h7M84 52h4M84 53h3M80 57h2M80 58h3M72 59h11M84 59h1M61 61h1M60 62h2M58 63h3M57 64h7M50 65h2M54 65h10M50 66h16M52 67h14M51 68h7M60 68h2M51 69h7M50 70h1M52 70h6M50 71h8M48 72h9M48 73h9M45 74h1M48 74h9M44 75h2M47 75h10M46 76h2M50 76h4M46 77h2M50 77h5M52 78h4M52 79h4M52 80h6M52 81h6M52 82h8M52 83h10M22 84h18M48 84h20M22 85h18M48 85h20M22 86h46M22 87h46M8 88h4M26 88h33M4 89h8M26 89h32M4 90h16M26 90h22M8 91h12M26 91h22M20 92h24M20 93h20M4 94h22M32 94h6M4 95h4M11 95h15M32 95h4M12 96h9M6 97h2" />
<path stroke="#832c12" d="M172 8h6M155 9h4M160 9h1M164 9h4M169 9h12M164 10h4M169 10h13M164 11h4M170 11h10M164 12h3M174 12h3M163 13h2M158 14h1M161 14h3M155 15h1M230 15h1M143 16h2M140 18h1M146 21h2M110 22h1M136 22h4M146 22h3M156 22h3M160 22h2M110 23h1M115 23h1M117 23h1M142 23h2M148 23h1M160 23h2M74 24h1M85 24h1M109 24h1M143 24h4M148 24h2M159 24h4M89 25h3M100 25h10M134 25h1M146 25h4M161 25h3M92 26h6M100 26h6M133 26h2M94 27h10M130 27h2M133 27h2M94 28h10M124 28h12M94 29h10M124 29h13M74 30h30M122 30h6M72 31h32M122 31h6M71 32h7M79 32h11M91 32h1M94 32h2M98 32h8M108 32h17M71 33h6M87 33h1M99 33h27M70 34h8M102 34h2M106 34h6M116 34h2M120 34h5M70 35h8M107 35h5M116 35h9M72 36h8M72 37h8M72 38h8M72 39h8M72 40h3M78 40h2M70 41h5M68 42h7M66 43h8M65 44h13M60 45h18M56 46h20M84 46h5M54 47h22M80 47h10M50 48h12M64 48h2M70 48h4M80 48h9M46 49h12M64 49h2M70 49h4M80 49h8M40 50h4M46 50h6M55 50h1M58 50h2M70 50h6M82 50h2M42 51h10M56 51h3M72 51h2M44 52h4M44 53h4M58 56h2M21 57h1M23 57h4M58 57h2M20 58h1M22 58h4M58 58h2M26 59h2M58 59h3M56 60h3M56 61h2M54 62h4M54 63h4M43 64h5M50 64h7M33 65h1M38 65h12M52 65h2M33 66h17M38 67h14M16 68h8M42 68h9M20 69h3M44 69h7M4 70h8M44 70h6M51 70h1M4 71h8M44 71h6M4 72h6M43 72h5M4 73h5M42 73h6M4 74h4M40 74h5M46 74h2M4 75h4M39 75h5M46 75h1M40 76h6M40 77h6M38 78h10M38 79h10M32 80h16M28 81h22M20 82h6M28 82h20M19 83h5M40 83h10M11 84h11M40 84h8M10 85h12M40 85h8M6 86h12M20 86h2M6 87h16M4 88h4M12 88h14M12 89h14M20 90h6M4 91h4M20 91h6M5 92h2M8 92h4M5 93h7" />
<path stroke="#9f4a1f" d="M205 8h3M205 9h3M204 10h5M204 11h4M204 12h2M203 13h3M203 18h1M203 19h3M202 20h4M201 21h2M204 21h3M210 21h2M178 22h8M200 22h2M205 22h9M219 22h7M176 23h2M184 23h3M200 23h1M206 23h5M212 23h3M216 23h2M221 23h8M175 24h3M187 24h2M198 24h2M232 24h6M174 25h2M189 25h9M243 25h3M174 26h1M248 26h2M142 27h2M172 27h2M249 27h3M142 28h2M146 28h2M168 28h4M142 29h2M149 29h1M159 29h3M168 29h1M143 30h1M159 30h1M164 30h4M143 31h1M154 31h1M159 31h1M144 32h2M158 32h2M144 33h2M143 34h2M138 35h7M138 36h2M137 37h1M131 39h1M136 39h1M129 40h1M128 41h2M128 42h3M130 43h3M130 44h4M130 45h3M126 46h6M120 47h10M116 48h8M116 49h7M110 50h9M108 51h10M106 52h14M104 53h28M105 54h27M106 55h24M112 56h15M112 57h14M112 58h11M112 59h6M151 59h2M110 60h1M112 60h4M102 61h6M112 61h2M100 62h2M101 63h1M98 64h2M98 65h2M100 66h2M101 67h3M103 68h2M104 69h2M104 70h3M105 71h3M104 72h4M104 73h4M103 74h5M103 75h5M100 76h7M100 77h6M88 78h16M88 79h16M90 80h2M93 80h11M90 81h14M90 82h11M90 83h10M88 84h8M88 85h5M94 85h2M84 86h9M84 87h9M83 88h9M82 89h10M80 90h9M80 91h8M76 92h10M92 92h1M76 93h10M70 94h11M64 95h17M58 96h16M76 96h2M252 96h1M56 97h18M76 97h2M83 97h1M86 97h1M252 97h1M54 98h14M69 98h1M71 98h1M83 98h1M252 98h1M50 99h18M252 99h1M46 100h24M83 100h1M46 101h22M252 101h1M50 102h16M50 103h16M3 104h1M44 104h16M3 105h1M44 105h16M3 106h1M40 106h14M3 107h1M40 107h12M80 107h1M3 108h5M12 108h4M32 108h4M40 108h8M3 109h13M32 109h16M3 110h37M132 110h1M3 111h35M3 112h1M3 113h1M3 114h1M3 115h1M118 115h1M3 116h1M3 117h1M3 118h1M3 119h1M100 124h1M43 146h1M34 150h1M36 150h1M15 155h1" />
<path stroke="#020301" d="M253 11h1M152 100h2M155 100h1M152 101h1M155 101h1M153 102h1M155 102h1M82 103h1M155 103h1M155 105h1M136 110h1M126 115h1M129 115h1M119 116h1M122 116h2M126 116h1M252 116h1M119 117h1M126 117h1M133 117h1M120 118h1M122 118h2M138 118h1M114 119h1M119 119h1M121 119h1M125 119h1M240 119h1M111 120h2M114 120h2M124 120h2M109 121h1M113 121h3M145 121h1M106 122h1M110 122h1M112 122h4M125 122h3M139 122h1M104 123h2M108 123h1M111 123h2M136 123h1M139 123h1M106 124h1M108 124h4M118 124h2M104 125h3M108 125h4M118 125h4M128 125h2M132 125h1M135 125h1M238 125h2M243 125h1M245 125h1M98 126h1M104 126h7M112 126h5M118 126h4M124 126h4M130 126h6M235 126h1M241 126h3M249 126h1M98 127h2M104 127h6M112 127h12M130 127h2M173 127h1M241 127h3M249 127h2M112 128h1M114 128h2M119 128h5M125 128h1M127 128h2M130 128h2M138 128h2M189 128h1M243 128h1M114 129h3M119 129h1M122 129h2M125 129h1M127 129h1M129 129h1M138 129h2M155 129h1M196 129h1M243 129h1M102 130h2M112 130h3M117 130h2M122 130h2M125 130h2M131 130h3M138 130h4M148 130h2M151 130h2M164 130h1M166 130h1M193 130h2M243 130h1M102 131h2M112 131h2M117 131h2M120 131h4M125 131h2M128 131h1M130 131h1M134 131h2M138 131h4M157 131h1M164 131h1M188 131h1M228 131h1M243 131h1M108 132h4M114 132h2M120 132h4M126 132h1M129 132h7M137 132h3M159 132h2M191 132h1M243 132h2M246 132h2M108 133h9M119 133h5M128 133h1M130 133h10M142 133h2M157 133h2M166 133h1M168 133h1M170 133h1M172 133h1M175 133h1M247 133h4M108 134h4M114 134h2M118 134h2M123 134h2M126 134h1M137 134h5M169 134h2M178 134h1M188 134h1M245 134h1M247 134h1M108 135h9M120 135h3M124 135h1M126 135h1M138 135h6M148 135h4M156 135h3M162 135h2M165 135h2M170 135h1M179 135h1M181 135h2M189 135h1M229 135h1M244 135h1M246 135h1M112 136h9M122 136h2M134 136h1M137 136h3M154 136h1M163 136h1M165 136h1M200 136h1M222 136h1M225 136h1M245 136h2M248 136h3M54 137h1M112 137h2M116 137h4M123 137h1M132 137h1M134 137h6M152 137h3M160 137h3M172 137h1M181 137h3M185 137h2M200 137h1M202 137h1M204 137h2M209 137h1M223 137h1M231 137h1M234 137h2M245 137h1M248 137h3M120 138h4M132 138h8M153 138h1M155 138h1M161 138h2M168 138h1M172 138h2M181 138h2M200 138h1M202 138h1M204 138h1M219 138h1M222 138h1M232 138h2M248 138h4M120 139h4M134 139h2M138 139h2M152 139h1M154 139h1M164 139h2M168 139h1M172 139h2M180 139h1M183 139h1M188 139h2M202 139h1M206 139h2M230 139h1M239 139h1M244 139h1M246 139h6M114 140h2M120 140h1M122 140h1M124 140h4M148 140h2M151 140h1M160 140h1M164 140h1M192 140h4M205 140h7M236 140h2M241 140h1M248 140h4M114 141h2M121 141h7M160 141h9M171 141h3M175 141h1M190 141h2M194 141h2M200 141h2M205 141h3M216 141h1M236 141h4M241 141h1M248 141h4M121 142h7M148 142h4M160 142h6M168 142h2M195 142h1M202 142h6M216 142h1M226 142h2M235 142h1M238 142h2M241 142h1M243 142h1M245 142h1M250 142h1M122 143h6M148 143h4M160 143h5M166 143h2M175 143h1M190 143h2M194 143h1M200 143h8M212 143h5M226 143h2M234 143h1M236 143h4M241 143h1M243 143h1M245 143h1M144 144h4M166 144h1M209 144h1M212 144h1M214 144h1M216 144h1M218 144h1M233 144h1M240 144h4M250 144h2M144 145h4M165 145h1M213 145h1M215 145h2M218 145h1M224 145h4M234 145h2M240 145h2M251 145h1M120 146h4M146 146h2M164 146h1M209 146h1M212 146h1M214 146h1M216 146h1M218 146h1M224 146h4M232 146h1M234 146h2M248 146h2M251 146h1M122 147h2M146 147h2M164 147h1M168 147h2M213 147h1M215 147h2M218 147h1M226 147h2M232 147h4M240 147h2M248 147h2M251 147h1M152 148h4M164 148h1M167 148h1M169 148h1M176 148h4M225 148h1M227 148h5M237 148h3M248 148h2M152 149h4M164 149h1M166 149h1M176 149h4M208 149h4M224 149h2M228 149h4M237 149h3M248 149h2M152 150h4M170 150h2M176 150h4M208 150h3M216 150h2M224 150h2M227 150h2M230 150h2M236 150h4M35 151h1M152 151h4M168 151h2M176 151h4M208 151h2M216 151h2M224 151h2M227 151h5M238 151h2M208 152h3M220 152h2M223 152h1M225 152h1M227 152h1M244 152h4M208 153h2M211 153h1M220 153h2M223 153h2M227 153h1M244 153h4M208 154h4M222 154h5M244 154h2M208 155h2M222 155h6M244 155h2M202 156h2M224 156h4M244 156h2M12 157h1M202 157h2M224 157h4M244 157h2M224 158h4M224 159h4M220 160h4M220 161h4M220 162h4M222 163h2M240 166h2" />
<path stroke="#74230d" d="M63 15h1M36 20h2M52 20h4M63 21h1M66 21h1M64 22h4M20 23h4M64 23h4M18 24h6M64 24h4M16 25h9M64 25h4M69 25h3M15 26h12M67 26h9M78 26h6M112 26h4M12 27h15M66 27h10M78 27h6M108 27h2M8 28h4M14 28h13M64 28h10M78 28h6M107 28h1M10 29h2M14 29h14M64 29h8M14 30h6M24 30h4M64 30h6M13 31h7M24 31h4M63 31h9M12 32h10M24 32h5M63 32h4M69 32h1M12 33h17M63 33h5M69 33h1M12 34h10M63 34h5M69 34h1M12 35h7M64 35h4M69 35h1M12 36h8M65 36h5M14 37h6M66 37h4M16 38h2M65 38h5M65 39h5M63 40h5M71 40h1M62 41h6M52 42h14M23 43h12M46 43h19M22 44h12M48 44h16M21 45h13M43 45h17M18 46h6M26 46h10M41 46h13M17 47h7M27 47h1M32 47h16M53 47h1M5 48h3M10 48h8M6 49h2M10 49h8M8 50h6M10 51h4M16 56h6M15 57h1M31 57h1M27 58h2M5 59h1M10 59h2M21 59h3M44 59h2M7 60h1M14 60h2M17 60h7M5 61h2M17 61h9M20 62h12M20 63h12M24 64h4M29 64h3M35 64h1M12 65h4M22 65h10M8 66h20M29 66h1M4 67h12M28 67h3M4 68h4M12 68h2M12 69h2M16 74h2M12 75h6M11 76h9M10 77h18M4 78h24M5 79h23M5 80h2M10 80h2M5 81h1M5 83h1" />
<path stroke="#ad622f" d="M203 21h1M202 22h3M201 23h5M180 24h6M200 24h13M178 25h10M198 25h19M220 25h8M230 25h2M176 26h3M187 26h2M192 26h8M206 26h2M210 26h5M224 26h1M176 27h2M189 27h10M211 27h4M175 28h1M190 28h2M193 28h5M240 28h2M172 29h1M174 29h2M198 29h1M242 29h1M147 30h1M169 30h3M198 30h1M243 30h3M147 31h6M161 31h4M168 31h3M198 31h1M244 31h6M251 31h1M147 32h4M154 32h2M161 32h2M166 32h3M244 32h6M251 32h1M148 33h2M157 33h2M161 33h2M248 33h2M251 33h1M148 34h1M160 34h2M248 34h2M251 34h1M147 35h2M248 35h2M251 35h1M251 36h1M251 37h1M141 41h1M138 42h2M189 42h1M135 43h5M189 43h1M136 44h4M189 44h1M136 45h6M136 46h1M140 46h4M131 47h1M142 47h3M134 48h4M140 48h4M124 49h19M124 50h15M122 51h2M130 51h9M132 52h7M232 52h1M134 53h6M170 53h1M237 53h1M134 54h7M170 54h1M133 55h7M129 56h9M129 57h6M217 57h1M125 58h8M171 58h3M199 58h1M124 59h8M150 59h1M198 59h1M121 60h2M126 60h4M131 60h1M198 60h1M198 61h1M237 61h1M198 62h1M198 63h1M153 64h1M230 64h1M230 65h1M223 66h4M228 66h1M230 66h1M147 67h1M225 67h3M117 68h2M120 68h2M226 68h3M244 68h1M114 69h2M117 69h2M120 69h1M227 69h2M114 70h7M162 70h1M166 70h2M228 70h2M115 71h5M156 71h1M166 71h2M215 71h1M228 71h3M116 72h4M165 72h4M216 72h1M227 72h4M249 72h1M116 73h4M167 73h1M224 73h6M249 73h1M115 74h4M137 74h1M229 74h1M113 75h1M115 75h4M237 75h1M113 76h4M229 76h1M245 76h1M248 76h1M112 77h4M165 77h1M110 78h6M136 78h1M109 79h6M107 80h8M144 80h1M106 81h8M106 82h8M155 82h1M106 83h8M102 84h11M235 84h1M102 85h11M149 85h1M100 86h11M228 86h1M100 87h10M97 88h13M98 89h11M99 90h9M156 90h1M98 91h10M95 92h1M98 92h8M97 93h9M95 94h1M100 94h6M150 94h1M92 95h1M95 95h1M99 95h1M101 95h1M103 95h3M234 95h1M97 96h1M199 97h1M227 97h1M86 98h1M93 98h1M199 98h1M93 99h1M95 99h1M157 99h1M199 99h1M85 100h1M92 100h1M252 100h1M80 101h1M83 101h1M85 101h1M79 102h1M85 102h1M168 102h1M200 102h1M202 102h1M79 103h1M85 103h1M93 103h1M151 103h1M186 103h1M215 103h1M79 104h1M85 104h1M89 104h1M92 104h1M79 105h1M88 105h1M80 106h1M87 106h1M233 106h1M84 107h2M90 107h1M141 107h1M79 108h1M89 108h1M137 108h1M89 109h1M134 109h1M238 109h1M88 110h1M80 112h1M87 112h1M250 113h1M252 113h1M87 114h1M87 115h1M80 118h1M80 119h1M80 120h1M108 120h1M80 121h1M105 121h1M103 122h1M3 124h1M80 124h1M3 125h1M80 125h1M97 125h1M3 126h1M80 126h1M95 126h1M3 127h1M79 128h1M89 128h1M92 128h1M89 129h1M75 131h1M60 132h1M66 132h3M71 132h1M80 132h1M57 133h1M78 133h1M55 134h1M50 138h1M3 140h1M3 141h1M47 141h1M3 142h1M3 143h1M3 144h1M45 144h1M3 145h1M44 145h1M3 146h1M3 147h1M3 148h1M40 148h1M3 149h1M3 150h1M33 150h1M3 151h1M28 151h1M24 152h1M12 155h1M14 155h1" />
<path stroke="#a64c1d" d="M178 23h6M211 23h1M218 23h3M186 24h1M213 24h4M224 24h8M176 25h2M188 25h1M232 25h11M175 26h1M189 26h3M238 26h10M174 27h2M243 27h6M144 28h2M172 28h2M246 28h6M144 29h5M169 29h1M248 29h4M144 30h2M148 30h4M160 30h4M168 30h1M250 30h2M144 31h2M160 31h1M165 31h3M250 31h1M146 32h1M156 32h2M160 32h1M146 33h2M160 33h1M145 34h2M145 35h1M140 36h4M138 37h3M137 38h4M137 39h3M130 40h10M130 41h8M131 42h4M133 43h1M134 44h2M133 45h3M132 46h4M137 46h1M130 47h1M132 47h9M124 48h10M138 48h2M123 49h1M119 50h5M118 51h4M124 51h6M120 52h12M132 53h2M132 54h2M130 55h3M127 56h2M126 57h2M123 58h2M118 59h6M108 60h2M116 60h1M108 61h4M114 61h2M102 62h10M100 63h1M102 63h6M100 64h6M100 65h3M104 65h1M102 66h4M104 67h4M105 68h5M106 69h4M107 70h4M108 71h4M108 72h4M108 73h4M108 74h2M108 75h2M107 76h3M106 77h3M104 78h4M104 79h3M101 82h3M100 83h4M96 84h3M93 85h1M96 85h3M93 86h6M93 87h5M92 88h5M92 89h4M89 90h7M88 91h8M86 92h6M86 93h6M81 94h7M92 94h3M81 95h7M74 96h2M78 96h6M87 96h1M74 97h2M78 97h5M87 97h1M68 98h1M70 98h1M72 98h10M68 99h12M83 99h1M70 100h8M80 100h1M68 101h4M74 101h2M66 102h2M66 103h2M60 104h7M60 105h4M54 106h10M52 107h12M48 108h8M48 109h8M40 110h10M38 111h10M49 111h1M4 112h44M4 113h42M4 114h35M4 115h32M4 116h4M4 117h4" />
<path stroke="#ac551c" d="M178 24h1M174 28h1M153 31h1M159 33h1M146 35h1M144 36h1M141 38h1M140 39h1M140 40h1M138 41h1M135 42h1M134 43h1M141 47h1M128 57h1M117 60h1M112 62h3M108 63h2M106 64h2M103 65h1M105 65h1M106 66h2M108 67h2M110 68h4M110 69h2M111 70h1M112 71h1M112 72h1M112 73h1M110 74h1M110 75h1M110 76h2M109 77h2M108 78h1M107 79h2M104 80h2M104 81h2M99 84h3M99 85h3M99 86h1M98 87h2M96 89h2M96 90h2M96 91h2M94 92h1M96 92h1M93 93h2M90 94h2M90 95h2M93 95h1M84 96h1M86 96h1M89 96h3M93 96h1M88 97h2M93 97h1M97 97h1M87 98h3M92 98h1M87 99h2M82 100h1M86 100h1M88 100h1M78 101h1M87 101h1M72 102h7M87 102h1M90 102h1M72 103h7M72 104h7M71 105h8M68 106h10M68 107h9M68 108h10M68 109h10M64 110h12M62 111h14M60 112h14M60 113h12M52 114h18M58 115h6M48 116h14M48 117h12M44 118h14M44 119h12M3 120h1M40 120h12M56 120h2M3 121h1M40 121h8M52 121h4M3 122h1M32 122h25M3 123h1M36 123h8M50 123h10M50 124h24M89 124h1M50 125h24M50 126h22M90 126h1M50 127h22M49 128h23M48 129h24M41 130h11M55 130h9M40 131h8M51 131h1M54 131h10M40 132h12M53 132h6M73 132h1M40 133h14M55 133h2M24 134h30M24 135h8M36 135h18M6 136h1M8 136h1M18 136h10M32 136h16M49 136h2M6 137h3M10 137h2M18 137h12M32 137h4M40 137h11M5 138h43M4 139h45M4 140h44M4 141h42M4 142h4M13 142h21M38 142h6M45 142h1M4 143h4M12 143h20M35 143h1M38 143h7M4 144h2M12 144h20M40 144h1M42 144h1M4 145h2M12 145h20M43 145h1M4 146h1M12 146h4M20 146h10M41 146h2M4 147h1M12 147h4M20 147h10M31 148h1M29 149h1" />
<path stroke="#b05a1f" d="M179 24h1M220 24h4M235 26h1M238 27h5M242 28h4M170 29h2M173 29h1M243 29h5M146 30h1M246 30h4M146 31h1M250 32h1M250 33h1M147 34h1M250 34h1M250 35h1M145 36h2M141 37h2M142 38h1M141 39h1M141 40h1M139 41h2M136 42h2M138 46h2M116 61h1M115 62h2M110 63h1M108 64h3M106 65h4M108 66h5M110 67h6M114 68h3M112 69h2M116 69h1M112 70h2M113 71h2M113 72h3M113 73h3M112 74h3M112 75h1M114 75h1M112 76h1M111 77h1M109 78h1M106 80h1M104 82h2M104 83h2M98 90h1M93 92h1M97 92h1M92 93h1M95 93h2M98 94h2M98 95h1M100 95h1M92 96h1M99 96h1M90 97h2M98 97h1M90 98h2M96 98h1M98 98h2M86 99h1M89 99h4M97 99h3M87 100h1M89 100h3M95 100h1M88 101h4M95 101h1M86 102h1M88 102h2M94 102h1M96 102h2M86 103h3M94 103h1M96 103h2M87 104h2M86 105h2M92 105h2M95 105h1M78 106h2M86 106h1M94 106h1M77 107h3M93 107h2M78 108h1M90 108h2M78 109h2M90 109h1M76 110h4M89 110h1M76 111h4M88 111h3M74 112h6M88 112h2M72 113h9M70 114h11M64 115h17M62 116h19M60 117h21M58 118h22M56 119h24M52 120h4M58 120h22M48 121h4M56 121h24M57 122h23M88 122h1M91 122h1M60 123h20M89 123h3M74 124h6M93 124h5M74 125h6M89 125h3M94 125h2M72 126h8M89 126h1M91 126h4M72 127h8M90 127h2M3 128h1M72 128h7M90 128h2M3 129h1M72 129h5M3 130h1M64 130h12M3 131h1M64 131h11M3 132h1M59 132h1M72 132h1M74 132h1M3 133h1M54 133h1M3 134h1M3 135h1M3 136h1M52 136h1M3 137h1M51 137h1M3 138h1M48 138h2M3 139h1M46 141h1M8 142h5M34 142h4M44 142h1M46 142h1M8 143h4M32 143h3M36 143h2M45 143h1M6 144h6M32 144h8M41 144h1M43 144h2M6 145h6M32 145h11M5 146h7M16 146h4M30 146h11M5 147h7M16 147h4M30 147h12M4 148h27M32 148h8M4 149h25M30 149h8M4 150h27M4 151h24M4 152h20M25 152h1M4 153h16M21 153h1M4 154h8M13 154h4M18 154h1" />
<path stroke="#bc5f2a" d="M217 24h3M217 25h3M228 25h2M179 26h1M215 26h2M218 26h6M225 26h10M236 26h2M219 27h7M227 27h1M230 27h8M176 28h1M232 28h8M176 29h1M230 29h12M174 30h2M234 30h9M238 31h6M151 32h3M163 32h3M169 32h1M240 32h4M168 33h1M240 33h8M149 34h1M162 34h1M246 34h2M149 35h1M246 35h2M147 36h2M248 36h3M143 37h4M247 37h4M143 38h2M248 38h4M142 39h2M249 39h3M142 40h3M247 40h1M250 40h2M142 41h3M140 42h1M144 48h1M118 60h3M123 60h3M117 61h6M117 62h5M111 63h9M111 64h7M119 64h2M110 65h11M113 66h9M116 67h8M119 68h1M122 68h1M119 69h1M121 69h2M121 70h1M120 71h1M119 74h1M119 75h1M117 76h3M116 77h3M116 78h2M115 79h2M114 81h1M111 86h1M110 87h1M102 95h1M106 95h1M98 96h1M100 96h8M92 97h1M99 97h9M97 98h1M100 98h8M96 99h1M100 99h8M96 100h11M96 101h11M95 102h1M98 102h10M89 103h1M95 103h1M98 103h10M86 104h1M93 104h11M94 105h1M96 105h9M91 106h3M95 106h9M91 107h2M95 107h9M92 108h12M91 109h11M90 110h12M91 111h12M90 112h12M88 113h14M88 114h13M88 115h13M88 116h13M108 116h1M88 117h13M88 118h18M88 119h18M108 119h1M88 120h18M88 121h16M89 122h2M92 122h10M88 123h1M92 123h9M90 124h3M98 124h1M92 125h2M96 125h1M89 127h1M92 127h2M31 150h2M3 153h1M20 153h1M12 154h1M17 154h1" />
<path stroke="#c06733" d="M180 26h7M200 26h6M208 26h2M217 26h1M178 27h2M186 27h3M199 27h2M202 27h9M215 27h4M226 27h1M228 27h2M177 28h2M188 28h2M192 28h1M198 28h2M210 28h22M177 29h1M220 29h10M172 30h2M176 30h1M225 30h9M171 31h6M226 31h12M170 32h2M231 32h9M150 33h7M163 33h5M169 33h2M236 33h4M150 34h2M157 34h3M163 34h1M168 34h2M238 34h8M150 35h2M161 35h2M164 35h1M239 35h7M149 36h2M243 36h5M147 37h4M245 37h2M145 38h2M245 38h3M144 39h2M245 39h4M145 40h1M244 40h3M248 40h2M145 41h1M242 41h10M141 42h5M241 42h11M140 43h3M240 43h12M140 44h2M244 44h8M142 45h2M244 45h8M144 46h2M244 46h8M145 47h3M244 47h8M145 48h3M245 48h7M143 49h4M246 49h6M139 50h5M247 50h5M139 51h2M248 51h4M139 52h3M248 52h4M140 53h3M248 53h4M141 54h3M247 54h5M140 55h3M247 55h5M138 56h2M250 56h2M135 57h3M133 58h3M132 59h3M130 60h1M132 60h2M123 61h11M122 62h10M120 63h9M118 64h1M121 64h7M121 65h7M122 66h6M124 67h4M123 68h5M123 69h4M122 70h4M121 71h3M120 72h4M120 73h4M120 74h4M120 75h4M120 76h3M119 77h3M251 77h1M118 78h4M117 79h4M115 80h6M115 81h5M114 82h5M114 83h5M113 84h6M113 85h4M112 86h5M111 87h5M110 88h6M109 89h6M108 90h6M108 91h5M106 92h8M106 93h8M106 94h8M94 95h1M107 95h7M108 96h6M108 97h6M108 98h7M108 99h6M107 100h7M107 101h7M108 102h9M90 103h1M108 103h7M116 103h2M104 104h10M105 105h9M85 106h1M104 106h10M104 107h12M104 108h6M102 109h8M102 110h8M80 111h1M103 111h7M102 112h10M102 113h10M101 114h11M101 115h11M101 116h7M109 116h1M111 116h1M101 117h7M109 117h3M106 118h5M106 119h2M106 120h2M104 121h1M80 122h1M102 122h1M80 123h1M99 124h1M69 132h2M3 152h1M22 153h1M3 154h1M4 155h8M13 155h1" />
<path stroke="#c7703b" d="M180 27h6M201 27h1M179 28h3M186 28h2M200 28h10M178 29h2M210 29h10M177 30h1M216 30h9M177 31h1M220 31h6M172 32h5M224 32h7M171 33h1M229 33h7M152 34h5M164 34h4M170 34h2M232 34h6M152 35h1M159 35h2M163 35h1M169 35h2M234 35h5M151 36h2M163 36h3M236 36h7M151 37h1M241 37h4M147 38h3M241 38h4M146 39h2M240 39h5M146 40h2M241 40h3M146 41h3M238 41h4M146 42h2M237 42h4M143 43h3M235 43h5M142 44h2M234 44h10M144 45h2M236 45h8M146 46h2M237 46h7M148 47h2M238 47h6M148 48h2M238 48h7M147 49h2M237 49h9M144 50h3M238 50h9M141 51h4M238 51h10M142 52h4M231 52h1M240 52h8M143 53h3M240 53h8M144 54h2M240 54h7M143 55h1M239 55h8M140 56h2M242 56h2M245 56h5M138 57h2M248 57h4M136 58h4M249 58h3M135 59h4M249 59h3M134 60h4M249 60h3M134 61h3M249 61h3M132 62h4M251 62h1M129 63h5M250 63h2M128 64h6M128 65h4M217 65h1M219 65h1M128 66h4M250 66h2M128 67h4M224 67h1M248 67h4M128 68h3M225 68h1M248 68h1M250 68h2M127 69h4M226 69h1M251 69h1M126 70h4M215 70h1M227 70h1M251 70h1M124 71h6M227 71h1M251 71h1M124 72h4M217 72h1M225 72h2M124 73h4M143 73h1M223 73h1M124 74h3M251 74h1M124 75h3M229 75h1M251 75h1M123 76h4M250 76h2M122 77h4M247 77h1M249 77h1M122 78h4M250 78h1M121 79h4M249 79h3M121 80h3M120 81h4M119 82h4M119 83h3M119 84h5M117 85h5M117 86h5M116 87h5M116 88h4M115 89h5M114 90h4M119 90h1M113 91h4M114 92h5M114 93h5M114 94h7M114 95h7M114 96h8M114 97h8M115 98h7M114 99h8M114 100h9M94 101h1M114 101h9M124 101h2M117 102h6M124 102h1M115 103h1M118 103h5M124 103h2M114 104h12M151 104h1M114 105h12M114 106h11M116 107h7M234 107h1M110 108h13M236 108h1M110 109h12M110 110h12M87 111h1M110 111h12M242 111h1M112 112h12M125 112h1M87 113h1M112 113h8M122 113h1M112 114h7M121 114h1M112 115h4M117 115h1M110 116h1M112 116h2M108 117h1M112 117h1M109 119h1M101 123h1M88 124h1M38 149h1" />
<path stroke="#cf7c44" d="M182 28h4M180 29h9M199 29h11M178 30h3M199 30h17M178 31h1M210 31h2M213 31h7M177 32h2M198 32h1M216 32h8M172 33h7M198 33h1M222 33h7M172 34h3M177 34h1M223 34h9M153 35h6M165 35h4M171 35h2M228 35h6M153 36h2M160 36h3M166 36h1M170 36h3M231 36h5M152 37h3M165 37h2M232 37h9M150 38h4M231 38h1M235 38h6M148 39h4M235 39h1M237 39h3M148 40h3M234 40h7M149 41h1M234 41h4M148 42h3M234 42h3M146 43h5M232 43h3M144 44h2M230 44h4M146 45h2M189 45h1M230 45h6M148 46h2M232 46h5M150 47h2M231 47h7M150 48h3M230 48h8M149 49h5M231 49h6M147 50h5M232 50h6M145 51h5M233 51h5M146 52h3M235 52h5M146 53h4M238 53h2M146 54h4M238 54h2M144 55h3M170 55h1M238 55h1M142 56h3M239 56h3M244 56h1M140 57h4M241 57h7M140 58h3M242 58h7M139 59h4M242 59h7M138 60h4M243 60h6M137 61h6M243 61h6M136 62h7M244 62h7M134 63h9M153 63h1M245 63h5M134 64h6M245 64h7M132 65h7M216 65h1M218 65h1M220 65h1M244 65h8M132 66h7M221 66h2M243 66h7M132 67h7M223 67h1M243 67h5M131 68h7M147 68h1M224 68h1M245 68h1M247 68h1M249 68h1M131 69h5M215 69h1M250 69h1M130 70h6M226 70h1M250 70h1M130 71h6M168 71h1M216 71h1M224 71h3M250 71h1M128 72h6M215 72h1M218 72h1M223 72h2M250 72h2M128 73h5M222 73h1M250 73h2M127 74h6M249 74h2M127 75h5M250 75h1M127 76h5M249 76h1M126 77h6M242 77h5M248 77h1M250 77h1M126 78h5M243 78h7M251 78h1M125 79h5M242 79h7M124 80h6M240 80h12M124 81h6M155 81h1M239 81h13M123 82h6M240 82h12M122 83h7M242 83h10M124 84h5M243 84h2M246 84h6M122 85h7M248 85h4M122 86h7M250 86h2M121 87h8M250 87h2M120 88h8M120 89h8M118 90h1M120 90h8M117 91h11M119 92h11M119 93h11M121 94h9M121 95h9M122 96h8M227 96h1M234 96h1M122 97h8M122 98h9M157 98h1M122 99h10M123 100h11M123 101h1M126 101h10M123 102h1M125 102h13M123 103h1M126 103h12M182 103h1M248 103h1M250 103h2M126 104h16M158 104h1M248 104h4M126 105h15M248 105h4M125 106h17M248 106h4M123 107h15M248 107h4M123 108h12M248 108h4M122 109h11M246 109h6M122 110h8M244 110h1M246 110h6M122 111h6M248 111h4M124 112h1M127 112h1M247 112h1M251 112h1M120 113h2M123 113h2M119 114h2M116 115h1M114 116h1M113 117h1M111 118h1" />
<path stroke="#010200" d="M253 29h1M253 31h1M253 43h1M253 63h1M253 66h1M253 67h1M253 78h1M153 101h1M152 102h1M152 103h1M153 105h2M83 106h1M140 108h1M253 112h2M253 115h1M106 123h1M104 124h2M107 124h1M107 125h1M247 125h1M122 126h2M129 126h1M247 126h1M129 127h1M245 127h1M100 128h4M113 128h1M129 128h1M100 129h4M112 129h1M88 130h1M90 130h1M100 130h2M115 130h2M120 130h2M124 130h1M99 131h3M114 131h1M119 131h1M124 131h1M129 131h1M149 131h1M98 132h6M116 132h2M119 132h1M98 133h6M117 133h1M129 133h1M183 133h1M244 133h1M98 134h6M125 134h1M142 134h2M179 134h1M56 135h1M67 135h1M98 135h6M127 135h2M245 135h1M100 136h4M152 136h2M189 136h1M100 137h4M114 137h2M120 137h1M168 137h1M100 138h4M112 138h8M152 138h1M154 138h1M183 138h1M100 139h4M112 139h8M132 139h2M136 139h2M153 139h1M181 139h1M51 140h1M100 140h14M121 140h1M50 141h2M100 141h14M120 141h1M48 142h1M100 142h16M120 142h1M100 143h16M120 143h2M193 143h1M250 143h1M92 144h20M114 144h2M120 144h4M92 145h20M114 145h2M120 145h4M232 145h1M92 146h20M114 146h2M144 146h2M250 146h1M44 147h2M92 147h20M114 147h2M144 147h2M250 147h1M116 148h8M140 148h4M250 148h2M116 149h8M140 149h4M167 149h1M226 149h1M250 149h2M116 150h8M136 150h8M226 150h1M229 150h1M248 150h4M42 151h2M116 151h8M136 151h8M211 151h1M236 151h2M248 151h4M108 152h2M112 152h4M128 152h4M144 152h8M26 153h1M108 153h2M112 153h4M128 153h4M144 153h8M210 153h1M108 154h2M114 154h2M128 154h4M144 154h8M246 154h2M25 155h1M108 155h2M114 155h2M128 155h4M144 155h8M246 155h2M140 156h4M160 156h4M168 156h4M200 156h2M246 156h2M140 157h4M160 157h4M168 157h4M200 157h2M246 157h2M140 158h4M160 158h4M168 158h4M180 158h4M200 158h4M244 158h4M140 159h4M160 159h4M168 159h4M179 159h5M200 159h4M244 159h4M148 160h1M151 160h1M164 160h4M176 160h4M192 160h4M148 161h1M151 161h1M164 161h4M176 161h4M192 161h4M148 162h1M151 162h1M164 162h4M176 162h4M192 162h4M148 163h1M151 163h1M164 163h4M176 163h4M192 163h4M220 163h2M152 164h4M204 164h4M212 164h8M240 164h4M152 165h4M204 165h4M212 165h8M240 165h4M204 166h4M212 166h8M242 166h2M242 167h2" />
<path stroke="#d68d53" d="M181 30h8M179 31h5M186 31h2M199 31h11M212 31h1M179 32h2M199 32h17M179 33h1M212 33h10M175 34h2M178 34h2M198 34h1M214 34h9M173 35h6M198 35h1M220 35h8M155 36h5M167 36h3M173 36h2M198 36h1M222 36h9M155 37h2M162 37h3M167 37h2M171 37h2M198 37h1M224 37h8M154 38h3M166 38h2M198 38h1M227 38h4M232 38h3M152 39h4M198 39h1M228 39h7M236 39h1M151 40h1M198 40h1M230 40h4M150 41h2M198 41h1M230 41h4M151 42h2M198 42h1M230 42h4M151 43h3M198 43h1M228 43h4M146 44h7M227 44h3M148 45h2M226 45h4M150 46h2M189 46h1M198 46h1M225 46h1M227 46h5M152 47h2M189 47h1M198 47h1M227 47h4M153 48h4M182 48h7M226 48h4M154 49h3M226 49h5M152 50h4M226 50h6M150 51h5M228 51h5M149 52h5M228 52h3M233 52h2M150 53h4M227 53h4M150 54h3M227 54h4M147 55h4M227 55h4M145 56h4M170 56h1M238 56h1M144 57h3M170 57h1M238 57h3M143 58h3M200 58h7M238 58h4M143 59h3M149 59h1M238 59h4M142 60h5M238 60h5M143 61h4M239 61h4M143 62h4M153 62h1M237 62h1M240 62h4M143 63h3M230 63h1M237 63h1M241 63h4M140 64h6M238 64h7M139 65h8M215 65h1M221 65h1M239 65h5M139 66h8M215 66h6M229 66h1M240 66h3M139 67h8M215 67h8M237 67h1M240 67h3M138 68h8M215 68h9M246 68h1M136 69h8M216 69h10M136 70h5M161 70h1M168 70h1M216 70h10M136 71h4M155 71h1M217 71h7M134 72h4M139 72h1M219 72h4M133 73h5M142 73h1M220 73h2M133 74h4M228 74h1M132 75h4M236 75h1M249 75h1M132 76h4M239 76h6M132 77h4M166 77h1M236 77h6M131 78h5M159 78h1M237 78h6M130 79h7M237 79h5M130 80h6M145 80h1M155 80h1M236 80h4M130 81h5M138 81h1M236 81h3M129 82h5M136 82h1M237 82h3M129 83h4M236 83h1M238 83h1M240 83h2M129 84h5M228 84h1M238 84h5M245 84h1M129 85h5M228 85h1M235 85h1M238 85h10M129 86h6M149 86h1M235 86h1M239 86h1M241 86h9M129 87h6M244 87h6M128 88h7M244 88h8M128 89h7M156 89h1M244 89h8M128 90h8M244 90h8M128 91h8M244 91h8M130 92h8M199 92h1M242 92h10M130 93h8M199 93h1M235 93h1M242 93h10M130 94h10M199 94h1M246 94h6M130 95h10M150 95h1M199 95h1M227 95h1M246 95h6M130 96h11M199 96h1M248 96h4M130 97h11M157 97h1M248 97h4M131 98h10M250 98h2M132 99h10M250 99h2M134 100h10M251 100h1M136 101h8M248 101h4M138 102h8M150 102h1M163 102h1M201 102h1M245 102h7M138 103h8M150 103h1M161 103h1M174 103h1M181 103h1M183 103h1M216 103h1M245 103h3M249 103h1M142 104h3M146 104h1M148 104h1M150 104h1M242 104h6M141 105h5M148 105h1M242 105h6M142 106h3M242 106h6M138 107h3M242 107h6M135 108h2M243 108h5M133 109h1M244 109h2M130 110h2M240 110h1M243 110h1M245 110h1M128 111h1M243 111h1M246 111h2M126 112h1M248 112h3M251 113h1" />
<path stroke="#e49955" d="M184 31h2M188 31h1M181 32h7M180 33h2M199 33h13M200 34h2M211 34h3M179 35h1M214 35h6M175 36h1M177 36h4M218 36h4M157 37h5M169 37h2M173 37h3M220 37h4M157 38h3M163 38h3M168 38h2M172 38h4M224 38h3M156 39h2M167 39h3M226 39h2M152 40h5M225 40h5M152 41h3M229 41h1M153 42h1M228 42h2M154 43h2M227 43h1M153 44h3M226 44h1M150 45h2M154 45h1M225 45h1M152 46h2M223 46h2M226 46h1M154 47h1M225 47h2M157 48h1M225 48h1M157 49h2M224 49h2M156 50h3M223 50h3M155 51h4M224 51h4M154 52h3M225 52h3M154 53h2M224 53h3M153 54h3M223 54h4M151 55h1M224 55h3M149 56h2M229 56h1M147 57h2M146 58h3M146 59h2M238 61h1M238 62h2M146 63h1M238 63h3M146 64h1M238 65h1M238 66h2M238 67h2M146 68h1M144 69h4M141 70h5M140 71h4M138 72h1M140 72h2M138 73h1M237 76h2M236 78h1M223 79h1M226 79h2M236 79h1M225 80h3M135 81h2M225 81h3M134 82h2M137 82h4M224 82h4M236 82h1M133 83h8M224 83h5M237 83h1M239 83h1M134 84h8M220 84h4M225 84h3M236 84h2M134 85h8M220 85h4M225 85h3M236 85h2M135 86h7M220 86h8M236 86h3M240 86h1M135 87h7M220 87h8M236 87h8M135 88h5M220 88h7M236 88h8M135 89h7M220 89h7M236 89h8M136 90h7M219 90h8M235 90h9M136 91h8M219 91h8M235 91h9M138 92h10M219 92h4M224 92h3M235 92h7M138 93h11M219 93h8M236 93h6M140 94h8M219 94h9M235 94h11M140 95h10M158 95h2M219 95h8M235 95h11M141 96h10M219 96h4M225 96h2M235 96h13M141 97h9M220 97h2M235 97h13M141 98h9M158 98h2M164 98h8M235 98h15M142 99h8M158 99h14M235 99h15M144 100h6M158 100h12M236 100h15M144 101h7M158 101h8M167 101h1M221 101h1M235 101h13M146 102h4M159 102h3M169 102h1M217 102h2M221 102h1M235 102h10M146 103h4M159 103h1M234 103h11M145 104h1M147 104h1M149 104h1M234 104h8M149 105h1M234 105h8M234 106h8M236 107h6M237 108h6M239 109h5M241 110h2M244 111h2" />
<path stroke="#eba862" d="M188 32h1M182 33h7M180 34h3M199 34h1M202 34h9M180 35h2M199 35h3M211 35h3M176 36h1M211 36h7M176 37h5M216 37h4M160 38h3M170 38h2M176 38h2M179 38h1M218 38h6M158 39h9M170 39h2M173 39h4M222 39h4M157 40h4M169 40h3M175 40h1M222 40h3M155 41h4M223 41h6M154 42h3M226 42h2M156 43h2M226 43h1M156 44h2M198 44h1M225 44h1M152 45h2M155 45h2M223 45h2M154 46h3M221 46h2M155 47h4M220 47h5M158 48h2M223 48h2M159 49h3M222 49h2M159 50h4M221 50h2M159 51h5M220 51h4M157 52h5M223 52h2M156 53h5M222 53h2M156 54h3M221 54h2M152 55h4M222 55h2M151 56h3M226 56h3M230 56h1M149 57h3M226 57h5M149 58h4M228 58h2M148 59h1M228 59h2M154 60h3M153 61h4M154 62h3M230 62h1M154 63h3M154 64h2M237 64h1M154 65h2M154 66h2M155 67h1M155 68h1M167 69h1M146 70h1M144 71h3M154 71h1M142 72h3M139 73h3M219 73h1M227 74h1M225 75h4M222 76h7M236 76h1M222 77h7M160 78h1M221 78h8M220 79h3M224 79h2M228 79h1M136 80h1M217 80h8M228 80h1M137 81h1M141 81h7M216 81h9M228 81h1M141 82h7M216 82h8M228 82h1M141 83h7M216 83h8M142 84h6M215 84h5M224 84h1M142 85h7M215 85h5M224 85h1M142 86h7M215 86h5M142 87h8M215 87h5M235 87h1M140 88h9M214 88h6M227 88h1M235 88h1M142 89h7M157 89h1M214 89h6M227 89h1M235 89h1M143 90h6M157 90h2M160 90h4M214 90h5M227 90h1M144 91h6M157 91h7M214 91h5M227 91h1M148 92h2M157 92h9M168 92h2M214 92h5M223 92h1M227 92h1M149 93h1M158 93h12M214 93h5M227 93h1M148 94h2M158 94h13M213 94h6M160 95h12M212 95h7M157 96h16M211 96h8M223 96h2M158 97h17M211 97h9M222 97h5M234 97h1M160 98h4M172 98h4M212 98h15M234 98h1M150 99h1M172 99h4M212 99h15M150 100h1M170 100h5M213 100h14M235 100h1M166 101h1M168 101h8M210 101h1M212 101h9M222 101h5M234 101h1M158 102h1M162 102h1M173 102h2M214 102h3M219 102h2M222 102h4M234 102h1M158 103h1M218 103h1M220 103h2M223 103h3M146 105h2M150 105h2M235 107h1" />
<path stroke="#f0b574" d="M183 34h6M182 35h7M202 35h9M181 36h2M199 36h8M209 36h2M181 37h1M199 37h2M210 37h6M178 38h1M180 38h2M209 38h9M172 39h1M177 39h5M214 39h8M161 40h8M172 40h3M176 40h4M215 40h7M159 41h4M170 41h4M176 41h3M220 41h3M157 42h3M173 42h1M220 42h6M158 43h2M224 43h2M158 44h2M223 44h2M157 45h3M198 45h1M222 45h1M157 46h4M220 46h1M159 47h3M218 47h2M160 48h4M180 48h2M218 48h5M162 49h3M220 49h2M163 50h3M219 50h2M164 51h4M218 51h2M162 52h6M220 52h3M161 53h7M220 53h2M159 54h4M219 54h2M156 55h4M219 55h3M154 56h4M223 56h3M152 57h5M223 57h3M153 58h3M207 58h9M224 58h4M230 58h1M153 59h7M226 59h2M230 59h1M153 60h1M157 60h4M228 60h3M157 61h4M228 61h3M157 62h5M226 62h4M157 63h5M226 63h4M156 64h5M227 64h3M156 65h6M222 65h1M229 65h1M237 65h1M156 66h7M237 66h1M154 67h1M156 67h7M154 68h1M156 68h5M154 69h5M168 69h1M147 70h1M154 70h3M160 70h1M147 71h1M145 72h2M218 73h1M216 74h7M225 74h2M217 75h8M216 76h6M167 77h1M169 77h1M214 77h8M163 78h4M168 78h2M213 78h8M155 79h14M170 79h1M213 79h7M146 80h1M156 80h13M212 80h5M139 81h2M148 81h1M156 81h13M212 81h4M148 82h1M156 82h13M212 82h4M148 83h1M156 83h13M212 83h4M148 84h1M156 84h13M212 84h3M156 85h14M212 85h3M157 86h19M211 86h4M157 87h19M211 87h4M149 88h1M156 88h20M211 88h3M149 89h1M158 89h18M210 89h4M149 90h1M159 90h1M164 90h12M199 90h1M210 90h4M164 91h12M199 91h1M209 91h5M166 92h2M170 92h6M209 92h5M157 93h1M170 93h6M208 93h6M157 94h1M171 94h6M207 94h6M157 95h1M172 95h5M207 95h5M173 96h5M207 96h4M150 97h1M175 97h4M207 97h4M150 98h1M176 98h4M206 98h6M176 99h4M206 99h6M234 99h1M175 100h6M207 100h6M234 100h1M176 101h5M209 101h1M211 101h1M170 102h3M175 102h6M211 102h3M226 102h1M160 103h1M185 103h1M187 103h2M217 103h1M219 103h1M222 103h1M226 103h1M225 104h2" />
<path stroke="#f2c48b" d="M183 36h6M207 36h2M182 37h7M201 37h9M182 38h4M199 38h7M208 38h1M182 39h2M199 39h1M207 39h7M180 40h4M207 40h8M163 41h7M174 41h2M179 41h5M207 41h1M212 41h8M160 42h6M170 42h3M174 42h9M211 42h9M160 43h2M173 43h3M178 43h3M216 43h8M160 44h3M216 44h7M160 45h3M220 45h2M161 46h3M218 46h2M162 47h3M217 47h1M164 48h4M177 48h3M165 49h4M218 49h2M166 50h3M218 50h1M168 51h2M168 52h2M218 52h2M168 53h2M218 53h2M163 54h6M218 54h1M160 55h5M218 55h1M158 56h5M219 56h4M157 57h5M219 57h4M156 58h9M220 58h4M160 59h5M221 59h5M161 60h5M223 60h5M161 61h5M222 61h6M162 62h4M221 62h5M162 63h3M223 63h3M161 64h7M215 64h1M224 64h3M162 65h5M223 65h6M163 66h3M163 67h2M161 68h8M159 69h8M157 70h3M170 70h1M214 70h1M169 71h3M212 71h3M147 72h1M169 72h4M212 72h3M169 73h3M211 73h7M169 74h5M211 74h5M223 74h2M169 75h6M210 75h7M169 76h5M210 76h6M168 77h1M170 77h4M210 77h4M161 78h2M167 78h1M170 78h3M210 78h3M169 79h1M171 79h2M210 79h3M147 80h2M169 80h5M209 80h3M169 81h9M209 81h3M169 82h9M208 82h4M169 83h9M202 83h2M206 83h6M169 84h10M199 84h1M202 84h10M170 85h9M199 85h1M202 85h10M156 86h1M176 86h3M199 86h1M203 86h8M156 87h1M176 87h3M199 87h1M203 87h8M176 88h4M199 88h1M203 88h8M176 89h4M199 89h1M203 89h7M176 90h4M204 90h6M176 91h4M204 91h5M176 92h4M204 92h5M176 93h4M204 93h4M177 94h3M204 94h3M177 95h4M204 95h3M178 96h4M202 96h5M179 97h3M202 97h5M180 98h4M202 98h4M180 99h4M202 99h4M181 100h4M202 100h5M181 101h6M201 101h8M181 102h6M175 103h6M184 103h1" />
<path stroke="#f3d4a8" d="M186 38h3M206 38h2M184 39h5M200 39h7M184 40h5M199 40h8M184 41h5M199 41h8M208 41h4M166 42h4M183 42h5M204 42h7M162 43h11M176 43h2M181 43h6M204 43h12M163 44h23M204 44h12M163 45h5M174 45h10M206 45h4M211 45h9M164 46h4M177 46h3M211 46h7M165 47h4M214 47h3M168 48h9M169 49h1M169 50h1M169 54h1M165 55h5M163 56h7M218 56h1M162 57h8M218 57h1M165 58h6M216 58h4M165 59h9M216 59h5M166 60h5M216 60h7M166 61h5M216 61h6M166 62h5M217 62h4M165 63h7M218 63h5M168 64h4M216 64h8M167 65h8M166 66h8M165 67h9M169 68h8M209 68h3M213 68h1M169 69h8M208 69h7M169 70h1M171 70h8M208 70h6M172 71h7M207 71h5M173 72h5M207 72h5M172 73h6M207 73h4M174 74h4M179 74h1M207 74h4M175 75h5M199 75h1M207 75h3M174 76h8M199 76h2M207 76h3M174 77h8M199 77h3M205 77h5M173 78h9M199 78h11M173 79h10M188 79h1M199 79h11M174 80h9M188 80h1M199 80h10M178 81h5M188 81h1M199 81h10M178 82h5M199 82h9M178 83h7M187 83h2M199 83h3M204 83h2M179 84h10M200 84h2M179 85h10M200 85h2M179 86h10M200 86h3M179 87h10M200 87h3M180 88h8M200 88h3M180 89h8M200 89h3M180 90h8M200 90h4M180 91h8M200 91h4M180 92h8M200 92h4M180 93h8M200 93h4M180 94h9M200 94h4M181 95h8M200 95h4M182 96h7M200 96h2M182 97h8M200 97h2M184 98h6M200 98h2M184 99h6M200 99h2M185 100h5M200 100h2M187 101h3M200 101h1M187 102h3" />
<path stroke="#020202" d="M253 39h1M154 100h1M154 101h1M154 102h1M81 103h1M153 103h2M155 104h1M84 108h1M85 109h1M134 110h1M128 113h1M124 116h2M124 117h2M252 117h1M124 118h2M124 119h1M243 120h1M252 120h1M252 121h1M110 123h1M243 123h1M102 124h1M238 124h2M252 124h1M248 125h1M252 125h1M248 126h1M252 126h1M132 127h2M248 127h1M252 127h1M85 128h1M104 128h8M252 128h1M104 129h8M252 129h1M106 130h6M252 130h1M77 131h1M89 131h1M106 131h6M252 131h1M107 132h1M144 132h2M167 132h1M251 132h1M107 133h1M144 133h3M187 133h1M106 134h2M144 134h1M146 134h2M192 134h1M194 134h2M106 135h2M144 135h1M168 135h1M193 135h1M198 135h2M110 136h2M124 136h8M140 136h6M148 136h4M157 136h1M160 136h1M170 136h1M193 136h3M247 136h1M110 137h2M124 137h6M140 137h12M156 137h2M166 137h1M193 137h3M246 137h1M124 138h8M140 138h10M151 138h1M158 138h1M163 138h1M166 138h2M169 138h1M185 138h3M193 138h7M246 138h1M51 139h1M124 139h8M140 139h10M151 139h1M157 139h1M162 139h2M166 139h2M169 139h2M184 139h1M187 139h1M191 139h1M193 139h7M234 139h5M116 140h2M128 140h2M134 140h14M152 140h8M167 140h7M175 140h8M184 140h4M196 140h4M228 140h4M235 140h1M247 140h1M49 141h1M116 141h2M128 141h2M134 141h14M152 141h8M169 141h2M176 141h4M183 141h5M189 141h1M196 141h4M228 141h8M240 141h1M247 141h1M134 142h14M152 142h8M176 142h12M189 142h1M196 142h4M228 142h4M240 142h1M247 142h1M134 143h14M152 143h8M165 143h1M176 143h7M184 143h4M189 143h1M196 143h4M228 143h4M240 143h1M247 143h1M124 144h4M148 144h6M155 144h11M175 144h34M230 144h2M236 144h4M244 144h4M124 145h4M148 145h6M155 145h10M174 145h34M230 145h2M236 145h4M244 145h4M148 146h16M173 146h35M229 146h3M236 146h8M245 146h3M148 147h4M154 147h10M173 147h36M229 147h3M236 147h4M245 147h3M124 148h2M146 148h5M156 148h8M174 148h2M184 148h24M232 148h4M240 148h8M146 149h6M156 149h8M174 149h1M184 149h22M232 149h2M240 149h8M39 150h1M146 150h6M156 150h4M162 150h6M173 150h3M180 150h28M232 150h4M240 150h8M124 151h2M146 151h6M156 151h4M162 151h6M173 151h3M180 151h28M232 151h4M240 151h8M166 152h2M170 152h2M180 152h2M188 152h20M212 152h4M217 152h2M228 152h9M238 152h6M166 153h2M170 153h2M188 153h20M212 153h4M217 153h2M228 153h8M237 153h2M240 153h4M23 154h1M166 154h4M188 154h4M200 154h8M212 154h8M228 154h8M237 154h7M22 155h1M166 155h4M188 155h4M200 155h8M212 155h8M228 155h9M238 155h6M192 156h2M206 156h18M228 156h16M192 157h2M206 157h18M228 157h16M206 158h14M222 158h2M228 158h4M206 159h14M222 159h2M228 159h4M210 160h2M218 160h2M224 160h8M210 161h2M218 161h2M224 161h8M210 162h2M216 162h4M234 162h4M210 163h2M216 163h4M234 163h4M200 166h2M236 166h4" />
<path stroke="#f5e6d0" d="M188 42h1M199 42h5M187 43h2M199 43h5M186 44h3M199 44h5M168 45h6M184 45h5M199 45h7M210 45h1M168 46h9M180 46h9M199 46h12M169 47h20M199 47h15M174 59h16M199 59h17M171 60h19M199 60h17M171 61h19M199 61h17M171 62h19M199 62h18M172 63h18M199 63h19M172 64h18M199 64h16M175 65h15M199 65h16M174 66h16M199 66h16M174 67h16M199 67h16M177 68h13M199 68h10M212 68h1M214 68h1M177 69h13M199 69h9M179 70h11M199 70h9M179 71h11M199 71h8M178 72h12M199 72h8M178 73h12M199 73h8M178 74h1M180 74h10M199 74h8M180 75h10M200 75h7M182 76h8M201 76h6M182 77h8M202 77h3M182 78h8M183 79h5M189 79h1M183 80h5M189 80h1M183 81h5M189 81h1M183 82h7M185 83h2M189 83h1M189 84h1M189 85h1M189 86h1M189 87h1M188 88h2M188 89h2M188 90h2M188 91h2M188 92h2M188 93h2M189 94h1M189 95h1M189 96h1" />
<path stroke="#a9501b" d="M111 74h1M111 75h1M88 94h2M88 95h2M88 96h1M82 98h1M80 99h3M78 100h2M81 100h1M72 101h2M76 101h2M79 101h1M86 101h1M68 102h4M68 103h4M67 104h5M64 105h7M64 106h4M64 107h4M56 108h12M56 109h12M50 110h14M48 111h1M50 111h12M48 112h12M46 113h14M39 114h13M36 115h22M8 116h40M8 117h40M4 118h40M4 119h40M4 120h36M4 121h36M4 122h28M4 123h32M44 123h6M4 124h46M4 125h46M4 126h46M4 127h46M4 128h45M4 129h44M4 130h37M52 130h3M4 131h36M48 131h3M52 131h2M4 132h36M52 132h1M4 133h36M4 134h20M54 134h1M4 135h20M32 135h4M4 136h2M7 136h1M9 136h9M28 136h4M48 136h1M51 136h1M4 137h2M9 137h1M12 137h6M30 137h2M36 137h4M4 138h1" />
<path stroke="#0f0f0a" d="M139 76h1M140 78h1M139 79h3M150 79h1M154 79h1M151 80h1M151 81h2M150 82h1M152 82h1M150 83h1M150 84h1M152 84h2M152 85h2M153 86h1M152 89h2M152 90h2M152 91h2M152 92h2M152 93h2M191 93h1M153 94h2M191 94h1M228 94h1M151 95h1M153 95h2M191 95h1M153 96h3M191 96h1M197 96h1M228 96h1M231 96h1M191 97h1M197 97h1M228 97h1M231 97h1M191 98h5M197 98h1M230 98h3M191 99h5M197 99h1M229 99h4M191 100h5M197 100h2M228 100h4M192 101h4M198 101h1M228 101h4M192 102h4M197 102h2M228 102h2M231 102h2M164 103h1M192 103h4M208 103h1M228 103h2M231 103h1M162 104h1M164 104h2M167 104h1M181 104h1M184 104h1M187 104h1M190 104h2M194 104h1M205 104h2M156 105h1M158 105h1M160 105h1M162 105h2M169 105h2M172 105h3M176 105h1M178 105h1M193 105h4M205 105h2M220 105h2M227 105h1M153 106h2M158 106h1M161 106h6M168 106h1M170 106h2M176 106h2M180 106h1M183 106h1M188 106h1M191 106h1M197 106h1M221 106h1M223 106h1M227 106h2M146 107h1M148 107h1M153 107h6M162 107h1M164 107h1M166 107h1M173 107h1M175 107h4M182 107h2M197 107h1M200 107h4M207 107h1M210 107h1M220 107h2M232 107h1M141 108h1M143 108h1M150 108h8M163 108h7M178 108h1M182 108h1M184 108h3M196 108h2M199 108h2M202 108h4M207 108h2M213 108h1M220 108h8M137 109h2M140 109h2M150 109h3M154 109h1M156 109h7M164 109h2M168 109h3M178 109h1M182 109h1M184 109h2M195 109h4M202 109h1M208 109h3M212 109h2M215 109h1M219 109h9M232 109h1M135 110h1M137 110h1M150 110h2M153 110h8M162 110h9M173 110h2M176 110h14M192 110h5M199 110h2M203 110h1M206 110h1M208 110h6M215 110h1M219 110h7M227 110h2M231 110h2M235 110h1M237 110h1M132 111h1M153 111h1M159 111h1M161 111h1M164 111h4M170 111h10M181 111h3M188 111h2M194 111h8M205 111h1M208 111h3M212 111h1M215 111h1M220 111h6M227 111h1M229 111h4M235 111h1M239 111h1M152 112h2M161 112h19M181 112h2M184 112h2M187 112h2M190 112h8M205 112h1M209 112h1M212 112h3M217 112h1M220 112h4M226 112h3M230 112h4M238 112h1M152 113h2M160 113h8M170 113h9M180 113h2M183 113h3M187 113h5M193 113h7M202 113h3M209 113h2M216 113h3M220 113h2M224 113h4M230 113h6M237 113h1M239 113h1M241 113h1M243 113h3M164 114h4M170 114h11M182 114h6M193 114h3M200 114h2M204 114h7M212 114h1M216 114h15M232 114h4M238 114h1M242 114h2M247 114h1M250 114h1M146 115h2M161 115h5M170 115h12M183 115h2M186 115h3M192 115h1M196 115h10M208 115h6M218 115h10M231 115h4M236 115h1M238 115h6M247 115h1M249 115h1M146 116h1M148 116h2M154 116h3M161 116h1M163 116h1M168 116h9M178 116h1M180 116h2M183 116h1M185 116h1M188 116h2M191 116h8M200 116h9M210 116h1M212 116h9M225 116h2M228 116h19M248 116h1M250 116h1M144 117h1M146 117h4M152 117h6M163 117h1M165 117h2M168 117h8M177 117h6M185 117h2M188 117h1M191 117h1M194 117h12M209 117h3M213 117h4M218 117h3M222 117h12M238 117h3M245 117h7M144 118h8M157 118h1M163 118h2M166 118h1M168 118h7M177 118h1M180 118h1M183 118h1M185 118h1M188 118h4M197 118h9M208 118h1M212 118h13M228 118h4M240 118h1M245 118h3M144 119h1M147 119h1M160 119h2M164 119h10M177 119h2M181 119h1M183 119h7M191 119h2M196 119h12M213 119h5M220 119h1M222 119h1M224 119h2M227 119h5M243 119h1M245 119h3M249 119h1M251 119h1M149 120h1M154 120h3M160 120h3M164 120h4M171 120h3M175 120h10M186 120h3M190 120h8M200 120h12M213 120h2M216 120h2M219 120h4M224 120h3M228 120h1M230 120h4M238 120h1M245 120h3M249 120h1M150 121h2M158 121h2M161 121h2M164 121h2M170 121h2M173 121h1M175 121h3M180 121h4M185 121h8M194 121h21M216 121h3M225 121h9M237 121h1M246 121h2M152 122h2M158 122h1M160 122h1M163 122h1M165 122h9M181 122h1M184 122h1M186 122h5M193 122h2M196 122h3M200 122h2M208 122h2M212 122h1M214 122h8M224 122h2M228 122h6M249 122h1M149 123h1M154 123h1M156 123h3M160 123h3M167 123h6M176 123h2M184 123h3M189 123h2M192 123h1M194 123h1M196 123h2M200 123h2M208 123h2M212 123h3M216 123h1M218 123h4M224 123h1M229 123h3M236 123h1M240 123h1M248 123h2M148 124h1M151 124h1M157 124h1M169 124h2M172 124h9M183 124h6M190 124h1M196 124h1M198 124h1M204 124h4M212 124h2M217 124h5M223 124h3M235 124h1M246 124h1M148 125h1M158 125h4M172 125h4M177 125h3M182 125h8M191 125h1M198 125h2M210 125h3M218 125h5M224 125h2M227 125h1M235 125h1M246 125h1M160 126h1M170 126h2M177 126h1M184 126h1M186 126h3M200 126h2M212 126h1M216 126h9M238 126h1M246 126h1M178 127h1M184 127h1M186 127h3M199 127h1M212 127h1M218 127h5M224 127h1M233 127h3M238 127h1M152 128h1M159 128h1M165 128h1M179 128h3M187 128h2M191 128h1M203 128h1M209 128h2M216 128h1M221 128h2M235 128h1M240 128h1M158 129h2M188 129h2M195 129h1M212 129h2M215 129h1M217 129h1M220 129h1M222 129h2M227 129h1M231 129h1M233 129h1M240 129h1M159 130h1M177 130h1M185 130h3M213 130h2M216 130h2M221 130h3M152 131h1M199 131h1M216 131h1M218 131h1M220 131h1M225 131h1M193 132h1M212 132h1M219 132h3M226 132h1M248 132h1M163 133h1M209 133h1M211 133h1M216 133h1M219 133h1M221 133h1M226 133h2M160 134h1M163 134h1M211 134h1M213 134h2M214 135h1M219 135h1M223 135h1M168 136h1M191 136h1M219 136h1M225 137h1M221 138h1M225 138h1M225 139h1" />
<path stroke="#080905" d="M137 77h1M191 101h1M196 102h1M230 102h1M191 103h1M230 103h1M161 104h1M159 105h1M177 105h1M148 106h1M169 106h1M145 107h1M151 107h1M160 107h1M163 107h1M204 107h1M208 107h1M219 107h1M223 107h2M144 108h6M198 108h1M201 108h1M219 108h1M232 108h1M139 109h1M142 109h1M144 109h6M153 109h1M155 109h1M163 109h1M166 109h2M206 109h1M138 110h12M152 110h1M171 110h1M226 110h1M229 110h1M133 111h4M141 111h1M144 111h9M154 111h5M160 111h1M168 111h2M216 111h2M226 111h1M129 112h1M132 112h2M137 112h3M144 112h8M154 112h7M224 112h2M229 112h1M242 112h1M129 113h1M132 113h2M138 113h14M154 113h6M168 113h2M182 113h1M222 113h2M236 113h1M125 114h1M128 114h1M134 114h1M138 114h22M161 114h3M168 114h2M181 114h1M231 114h1M122 115h2M128 115h1M131 115h1M134 115h1M137 115h9M148 115h13M166 115h4M182 115h1M185 115h1M228 115h3M248 115h1M127 116h1M133 116h1M136 116h6M143 116h3M147 116h1M150 116h4M157 116h4M162 116h1M164 116h4M179 116h1M184 116h1M221 116h2M247 116h1M249 116h1M127 117h1M132 117h1M138 117h4M143 117h1M145 117h1M150 117h2M158 117h5M164 117h1M167 117h1M176 117h1M192 117h2M206 117h3M212 117h1M217 117h1M234 117h4M241 117h1M243 117h2M114 118h1M117 118h1M132 118h3M136 118h2M140 118h2M143 118h1M152 118h4M158 118h5M167 118h1M206 118h2M209 118h1M225 118h3M232 118h8M241 118h1M243 118h2M249 118h2M115 119h1M134 119h5M140 119h2M143 119h1M145 119h2M148 119h11M162 119h2M208 119h2M211 119h2M218 119h1M223 119h1M232 119h8M244 119h1M248 119h1M250 119h1M116 120h4M137 120h2M141 120h4M146 120h3M150 120h1M152 120h2M157 120h3M163 120h1M168 120h3M185 120h1M189 120h1M212 120h1M215 120h1M223 120h1M234 120h1M237 120h1M239 120h2M244 120h1M248 120h1M250 120h2M126 121h2M136 121h2M143 121h1M147 121h3M152 121h2M157 121h1M160 121h1M163 121h1M166 121h4M172 121h1M178 121h2M193 121h1M219 121h6M234 121h3M238 121h2M241 121h1M244 121h2M248 121h2M107 122h1M138 122h1M140 122h1M146 122h6M154 122h2M159 122h1M162 122h1M164 122h1M174 122h1M176 122h5M182 122h2M191 122h2M195 122h1M199 122h1M202 122h6M210 122h2M213 122h1M222 122h2M226 122h2M234 122h3M240 122h2M243 122h1M245 122h4M250 122h1M125 123h1M137 123h1M140 123h3M146 123h3M150 123h4M155 123h1M163 123h4M173 123h1M175 123h1M178 123h6M187 123h2M191 123h1M193 123h1M198 123h2M202 123h6M210 123h2M215 123h1M217 123h1M222 123h2M225 123h4M232 123h4M237 123h3M241 123h1M245 123h3M250 123h2M133 124h2M150 124h1M152 124h5M158 124h3M162 124h2M165 124h4M171 124h1M181 124h2M189 124h1M191 124h5M197 124h1M199 124h5M208 124h4M214 124h3M222 124h1M226 124h9M236 124h2M241 124h1M244 124h1M248 124h4M149 125h2M152 125h4M157 125h1M163 125h8M176 125h1M180 125h2M190 125h1M192 125h6M200 125h10M213 125h5M223 125h1M226 125h1M228 125h7M236 125h2M241 125h1M250 125h2M101 126h1M142 126h6M156 126h1M159 126h1M161 126h3M168 126h2M172 126h1M174 126h3M178 126h2M181 126h3M185 126h1M190 126h1M192 126h8M202 126h10M213 126h3M225 126h9M236 126h2M239 126h1M250 126h2M144 127h1M146 127h2M149 127h2M157 127h6M164 127h9M175 127h3M179 127h5M185 127h1M189 127h7M197 127h2M200 127h6M210 127h2M213 127h5M223 127h1M225 127h8M236 127h1M239 127h1M246 127h1M251 127h1M149 128h1M153 128h4M158 128h1M160 128h4M166 128h13M182 128h1M184 128h3M190 128h1M192 128h10M204 128h5M211 128h5M217 128h4M223 128h1M227 128h1M229 128h6M236 128h4M151 129h3M156 129h2M160 129h7M169 129h1M171 129h11M183 129h2M186 129h2M190 129h3M194 129h1M197 129h15M214 129h1M216 129h1M218 129h1M221 129h1M224 129h3M228 129h3M232 129h1M234 129h1M236 129h4M127 130h2M155 130h4M160 130h4M168 130h2M172 130h5M178 130h3M182 130h3M188 130h5M195 130h1M197 130h16M215 130h1M218 130h2M224 130h2M228 130h4M233 130h8M127 131h1M131 131h1M153 131h4M160 131h4M167 131h1M172 131h11M184 131h4M189 131h1M192 131h1M194 131h5M200 131h1M202 131h1M204 131h12M217 131h1M221 131h4M226 131h1M229 131h13M125 132h1M147 132h3M154 132h3M158 132h1M161 132h2M164 132h1M168 132h2M171 132h7M180 132h5M186 132h5M194 132h1M198 132h2M202 132h10M213 132h1M216 132h3M222 132h4M228 132h7M236 132h4M241 132h2M245 132h1M250 132h1M148 133h2M162 133h1M180 133h2M188 133h1M192 133h3M198 133h4M204 133h5M210 133h1M212 133h4M217 133h2M220 133h1M222 133h3M228 133h1M232 133h8M243 133h1M245 133h1M251 133h1M157 134h2M161 134h2M166 134h1M182 134h1M185 134h2M189 134h2M204 134h7M212 134h1M215 134h2M218 134h2M221 134h10M232 134h2M236 134h5M244 134h1M249 134h1M160 135h1M164 135h1M172 135h1M185 135h3M190 135h1M204 135h8M213 135h1M216 135h3M222 135h1M224 135h3M231 135h1M236 135h5M243 135h1M158 136h1M161 136h2M173 136h1M180 136h1M203 136h1M209 136h1M211 136h5M218 136h1M220 136h2M223 136h2M230 136h4M242 136h3M169 137h1M171 137h1M187 137h1M190 137h2M208 137h1M210 137h1M212 137h4M218 137h4M224 137h1M242 137h2M170 138h1M214 138h5M224 138h1M226 138h1M186 139h1M201 139h1M210 139h2M214 139h3M218 139h1M221 139h4M226 139h1M245 139h1M150 140h1M165 140h2M214 140h2M217 140h3M224 140h2M242 140h2M218 141h1M224 141h2M243 141h1M224 142h1M251 142h1M183 143h1M224 143h1M251 143h1M171 144h1M170 145h2M210 145h2M166 146h1M170 146h2M165 148h1M170 148h2" />
<path stroke="#050603" d="M152 99h2M191 102h1M152 104h2M231 105h1M147 106h1M149 106h1M229 107h2M142 108h1M143 109h1M137 111h4M142 111h2M130 112h1M134 112h2M140 112h4M243 112h1M130 113h2M134 113h4M247 113h1M126 114h1M129 114h5M135 114h3M160 114h1M124 115h2M130 115h1M132 115h2M135 115h1M246 115h1M251 115h2M118 116h1M120 116h2M128 116h5M134 116h2M142 116h1M251 116h1M115 117h1M120 117h4M128 117h4M134 117h4M142 117h1M242 117h1M115 118h2M118 118h2M121 118h1M126 118h6M135 118h1M139 118h1M142 118h1M156 118h1M242 118h1M248 118h1M252 118h1M112 119h2M116 119h3M120 119h1M122 119h2M126 119h8M139 119h1M142 119h1M159 119h1M176 119h1M241 119h2M252 119h1M110 120h1M113 120h1M120 120h4M126 120h11M139 120h2M145 120h1M151 120h1M174 120h1M235 120h2M241 120h2M110 121h1M112 121h1M116 121h10M128 121h8M138 121h5M144 121h1M146 121h1M154 121h3M240 121h1M242 121h2M250 121h2M116 122h9M128 122h10M141 122h5M157 122h1M161 122h1M175 122h1M237 122h3M242 122h1M244 122h1M251 122h1M113 123h12M126 123h10M138 123h1M143 123h3M159 123h1M242 123h1M244 123h1M103 124h1M112 124h6M120 124h13M135 124h13M149 124h1M161 124h1M164 124h1M240 124h1M242 124h1M245 124h1M247 124h1M103 125h1M112 125h6M122 125h6M130 125h2M133 125h2M136 125h12M151 125h1M156 125h1M162 125h1M171 125h1M240 125h1M242 125h1M244 125h1M249 125h1M102 126h2M111 126h1M117 126h1M128 126h1M136 126h6M148 126h8M157 126h2M164 126h4M173 126h1M180 126h1M189 126h1M191 126h1M234 126h1M240 126h1M244 126h2M110 127h2M124 127h5M134 127h10M145 127h1M148 127h1M151 127h6M163 127h1M174 127h1M196 127h1M206 127h4M237 127h1M240 127h1M116 128h3M124 128h1M126 128h1M132 128h6M140 128h9M150 128h2M157 128h1M164 128h1M202 128h1M224 128h3M228 128h1M241 128h2M250 128h1M113 129h1M117 129h2M120 129h2M124 129h1M126 129h1M128 129h1M130 129h8M140 129h11M154 129h1M167 129h2M170 129h1M182 129h1M185 129h1M193 129h1M219 129h1M235 129h1M241 129h2M129 130h2M134 130h4M142 130h6M150 130h1M153 130h2M165 130h1M167 130h1M170 130h2M181 130h1M196 130h1M220 130h1M226 130h2M232 130h1M241 130h2M115 131h2M132 131h2M136 131h2M142 131h7M150 131h2M158 131h2M165 131h2M168 131h4M183 131h1M190 131h2M193 131h1M201 131h1M203 131h1M227 131h1M242 131h1M112 132h2M118 132h1M124 132h1M127 132h2M136 132h1M140 132h4M146 132h1M150 132h4M157 132h1M163 132h1M165 132h2M170 132h1M178 132h2M185 132h1M192 132h1M195 132h3M200 132h2M214 132h2M227 132h1M235 132h1M240 132h1M118 133h1M124 133h4M140 133h2M150 133h7M159 133h1M161 133h1M164 133h2M169 133h1M171 133h1M173 133h2M176 133h4M182 133h1M184 133h3M189 133h3M195 133h3M202 133h2M225 133h1M229 133h3M240 133h3M246 133h1M112 134h2M116 134h2M120 134h3M127 134h10M148 134h9M159 134h1M164 134h2M167 134h1M171 134h7M180 134h2M183 134h2M187 134h1M191 134h1M193 134h1M196 134h8M217 134h1M220 134h1M231 134h1M234 134h2M241 134h3M246 134h1M248 134h1M79 135h1M117 135h3M123 135h1M125 135h1M130 135h8M145 135h3M152 135h4M159 135h1M161 135h1M167 135h1M169 135h1M171 135h1M173 135h6M180 135h1M183 135h2M188 135h1M191 135h2M194 135h4M200 135h4M212 135h1M215 135h1M220 135h2M227 135h2M230 135h1M232 135h4M241 135h2M247 135h1M249 135h1M121 136h1M132 136h2M135 136h2M146 136h2M155 136h1M159 136h1M164 136h1M167 136h1M169 136h1M171 136h2M174 136h6M181 136h8M190 136h1M192 136h1M196 136h4M201 136h2M204 136h5M210 136h1M216 136h2M226 136h4M234 136h8M121 137h2M158 137h1M163 137h3M167 137h1M173 137h8M184 137h1M188 137h2M192 137h1M196 137h4M201 137h1M203 137h1M206 137h2M211 137h1M216 137h2M222 137h1M226 137h2M229 137h2M232 137h2M236 137h6M244 137h1M150 138h1M156 138h2M159 138h2M164 138h2M171 138h1M174 138h7M184 138h1M188 138h5M201 138h1M203 138h1M205 138h9M220 138h1M223 138h1M227 138h5M234 138h12M150 139h1M158 139h4M171 139h1M174 139h6M182 139h1M185 139h1M192 139h1M200 139h1M203 139h3M208 139h2M212 139h2M217 139h1M219 139h2M227 139h3M231 139h3M240 139h4M123 140h1M161 140h3M174 140h1M183 140h1M188 140h4M200 140h5M212 140h2M216 140h1M220 140h4M226 140h2M238 140h3M244 140h3M148 141h4M174 141h1M192 141h2M202 141h3M208 141h8M217 141h1M219 141h5M226 141h2M242 141h1M244 141h3M166 142h2M170 142h6M190 142h5M200 142h2M208 142h8M217 142h7M225 142h1M232 142h3M236 142h2M242 142h1M244 142h1M246 142h1M248 142h2M168 143h7M192 143h1M195 143h1M208 143h4M217 143h7M225 143h1M232 143h2M235 143h1M242 143h1M244 143h1M246 143h1M248 143h2M154 144h1M167 144h4M172 144h3M210 144h2M213 144h1M215 144h1M217 144h1M219 144h11M232 144h1M234 144h2M248 144h2M166 145h4M172 145h2M208 145h2M212 145h1M214 145h1M217 145h1M219 145h5M228 145h2M233 145h1M242 145h2M248 145h2M45 146h1M165 146h1M167 146h3M172 146h1M210 146h2M213 146h1M215 146h1M217 146h1M219 146h5M228 146h1M233 146h1M244 146h1M152 147h2M165 147h3M170 147h3M209 147h4M214 147h1M217 147h1M219 147h7M228 147h1M242 147h3M43 148h1M166 148h1M172 148h2M208 148h17M226 148h1M236 148h1M168 149h6M206 149h2M212 149h12M227 149h1M234 149h3M168 150h2M172 150h1M211 150h5M218 150h6M170 151h3M210 151h1M212 151h4M218 151h6M226 151h1M211 152h1M222 152h1M224 152h1M226 152h1M237 152h1M222 153h1M225 153h2M220 154h2M227 154h1M210 155h2M220 155h2" />
</svg>